<?xml version="1.0" encoding="utf-8" ?>
<svg xmlns="http://www.w3.org/2000/svg" xmlns:xlink="http://www.w3.org/1999/xlink" width="1593" height="1739"
     viewBox="0 0 1593 1739" overflow="visible" xml:space="preserve" onload="on_load(evt)" id="cannon" preserveAspectRatio="xMinYMin meet">

    <script type="text/javascript" xlink:href="lesson7.js" />

    <g transform="translate(-20 -100)">
        <g transform="translate(107 300) scale(6.5 6.5) scale(1 -1)">
            <line fill="none" stroke="brown" x1="5" y1="-1" x2="100" y2="-1" stroke-width="0.2" opacity="0.25" />
        </g>

        <g transform="translate(-150 0)">
            <symbol id="Gear" viewBox="-21.037 -21.111 42.073 42.224">
                <g>
                    <g>
                        <linearGradient id="XMLID_1_" gradientUnits="userSpaceOnUse" x1="-418.9785" y1="-536.4517" x2="-359.6093" y2="-595.8209" gradientTransform="matrix(0.9963 -0.0857 0.0857 0.9963 439.2788 527.5898)">
                            <stop offset="0" style="stop-color:#FFFF9E" />
                            <stop offset="1" style="stop-color:#823700" />
                        </linearGradient>
                        <path fill="url(#XMLID_1_)" d="M21.037-4.063c-0.157-0.822-0.953-1.361-1.775-1.201l-2.797,0.186
					         c-0.424-0.031-0.809-0.278-0.998-0.627c-0.172-0.463-0.364-0.918-0.575-1.36c-0.112-0.377-0.02-0.82,0.25-1.14l2.082-1.879
					         c0.686-0.479,0.854-1.424,0.373-2.11c-0.479-0.687-1.422-0.854-2.11-0.375l-2.48,1.307c-0.396,0.144-0.85,0.076-1.166-0.165
					         c-0.336-0.345-0.691-0.673-1.056-0.986c-0.272-0.299-0.375-0.754-0.256-1.167l1.136-2.563c0.432-0.717,0.203-1.648-0.516-2.08
					         c-0.717-0.433-1.648-0.202-2.08,0.516l-1.734,2.202c-0.306,0.295-0.749,0.416-1.135,0.322c-0.45-0.18-0.91-0.338-1.378-0.476
					         c-0.363-0.165-0.636-0.536-0.695-0.956L4.126-19.42c0.103-0.831-0.487-1.587-1.318-1.691c-0.832-0.103-1.588,0.487-1.691,1.317
					         l-0.689,2.718c-0.162,0.398-0.522,0.692-0.921,0.759c-0.237,0.01-0.474,0.022-0.712,0.044c-0.239,0.021-0.475,0.048-0.712,0.079
					         c-0.403,0.002-0.81-0.227-1.036-0.592l-1.143-2.559c-0.244-0.801-1.092-1.252-1.893-1.01c-0.801,0.244-1.252,1.09-1.01,1.892
					         l0.479,2.763c0.014,0.425-0.193,0.836-0.523,1.061c-0.436,0.217-0.861,0.45-1.273,0.703c-0.366,0.16-0.824,0.116-1.177-0.122
					         l-2.085-1.874c-0.549-0.633-1.504-0.701-2.137-0.152s-0.701,1.506-0.154,2.139l1.56,2.33c0.188,0.388,0.163,0.855-0.055,1.195
					         c-0.306,0.37-0.597,0.752-0.869,1.148c-0.271,0.292-0.707,0.438-1.123,0.363l-2.667-0.863c-0.759-0.355-1.661-0.028-2.016,0.73
					         c-0.355,0.758-0.029,1.66,0.731,2.016l2.371,1.494c0.322,0.271,0.487,0.693,0.44,1.084c-0.13,0.469-0.241,0.946-0.33,1.43
					         c-0.126,0.379-0.467,0.691-0.878,0.793l-2.788,0.296c-0.838-0.016-1.529,0.649-1.544,1.487
					         c-0.016,0.836,0.649,1.527,1.487,1.544l2.774,0.4c0.415,0.119,0.747,0.451,0.852,0.843c0.07,0.48,0.16,0.955,0.272,1.42
					         c0.035,0.394-0.148,0.812-0.48,1.07l-2.428,1.404c-0.771,0.326-1.131,1.215-0.805,1.986c0.326,0.771,1.215,1.133,1.985,0.807
					         l2.698-0.763c0.424-0.059,0.857,0.106,1.116,0.414c0.254,0.402,0.528,0.792,0.818,1.171c0.205,0.348,0.213,0.817,0.009,1.199
					         l-1.646,2.27c-0.571,0.61-0.54,1.57,0.072,2.142c0.611,0.572,1.57,0.54,2.143-0.071l2.154-1.794
					         c0.37-0.229,0.841-0.253,1.207-0.066c0.392,0.261,0.796,0.507,1.212,0.734c0.326,0.236,0.52,0.658,0.489,1.085l-0.582,2.743
					         c-0.273,0.792,0.146,1.654,0.938,1.928c0.791,0.274,1.653-0.146,1.927-0.937l1.239-2.516c0.234-0.346,0.635-0.555,1.026-0.551
					         c0.478,0.08,0.962,0.138,1.454,0.178c0.393,0.082,0.743,0.389,0.891,0.793l0.584,2.74c0.072,0.836,0.806,1.453,1.641,1.381
					         c0.834-0.07,1.451-0.805,1.381-1.639l0.107-2.803c0.076-0.422,0.368-0.784,0.742-0.934c0.479-0.122,0.952-0.264,1.412-0.427
					         c0.384-0.067,0.809,0.072,1.095,0.37l1.65,2.266c0.404,0.732,1.328,1,2.061,0.595s0.998-1.327,0.594-2.06l-1.041-2.604
					         c-0.102-0.412,0.013-0.857,0.289-1.146c0.375-0.297,0.738-0.611,1.085-0.941c0.325-0.241,0.792-0.298,1.19-0.135l2.429,1.398
					         c0.668,0.505,1.62,0.372,2.124-0.296c0.504-0.667,0.373-1.618-0.297-2.123l-2.008-1.954c-0.263-0.339-0.336-0.798-0.197-1.176
					         c0.223-0.426,0.426-0.861,0.613-1.307c0.201-0.345,0.6-0.578,1.024-0.593l2.789,0.29c0.814,0.189,1.629-0.318,1.818-1.133
					         c0.19-0.816-0.318-1.63-1.135-1.82l-2.628-0.967c-0.372-0.198-0.621-0.574-0.658-0.966c0.033-0.482,0.038-0.971,0.025-1.462
					         c0.041-0.4,0.311-0.78,0.695-0.968l2.667-0.868C20.658-2.446,21.195-3.242,21.037-4.063z M-0.276-5.464
					         c2.995-0.258,5.632,1.961,5.89,4.956c0.258,2.995-1.961,5.632-4.956,5.889C-2.337,5.64-4.975,3.42-5.232,0.425
					         C-5.489-2.571-3.27-5.207-0.276-5.464z" />

                        <linearGradient id="XMLID_2_" gradientUnits="userSpaceOnUse" x1="-406.626" y1="-548.9673" x2="-373.3053" y2="-582.288" gradientTransform="matrix(0.9963 -0.0857 0.0857 0.9963 439.2788 527.5898)">
                            <stop offset="0" style="stop-color:#FFFF9E" />
                            <stop offset="1" style="stop-color:#823700" />
                        </linearGradient>
                        <path fill="url(#XMLID_2_)" d="M-5.232,0.425c0.257,2.995,2.895,5.215,5.89,4.956c2.995-0.257,5.214-2.894,4.956-5.889
					        c-0.258-2.995-2.895-5.214-5.89-4.956C-3.27-5.207-5.489-2.571-5.232,0.425z M-1.055-14.54C6.951-15.229,14-9.296,14.689-1.288
					        C15.377,6.72,9.443,13.769,1.438,14.458C-6.57,15.146-13.618,9.212-14.307,1.205C-14.995-6.802-9.062-13.852-1.055-14.54z" />

                        <linearGradient id="XMLID_3_" gradientUnits="userSpaceOnUse" x1="-386.8428" y1="-568.7505" x2="-398.48" y2="-557.1132" gradientTransform="matrix(0.9963 -0.0857 0.0857 0.9963 439.2788 527.5898)">
                            <stop offset="0" style="stop-color:#FFFF9E" />
                            <stop offset="1" style="stop-color:#823700" />
                        </linearGradient>
                        <path fill="url(#XMLID_3_)" d="M-5.333,0.433c0.263,3.051,2.949,5.311,6,5.049c3.049-0.262,5.31-2.947,5.049-5.998
					            c-0.263-3.05-2.949-5.311-6-5.049C-3.333-5.303-5.594-2.617-5.333,0.433z M-0.113-3.575c1.952-0.169,3.672,1.277,3.839,3.23
					            c0.166,1.952-1.278,3.67-3.232,3.838c-1.952,0.168-3.67-1.279-3.838-3.231S-2.065-3.409-0.113-3.575z" />
                        <linearGradient id="XMLID_4_" gradientUnits="userSpaceOnUse" x1="20.2769" y1="-20.1279" x2="-19.4202" y2="19.5692">
                            <stop offset="0" style="stop-color:#FFFF9E" />
                            <stop offset="1" style="stop-color:#823700" />
                        </linearGradient>
                        <path fill="url(#XMLID_4_)" d="M-14.609,1.231c0.701,8.174,7.899,14.23,16.073,13.528c8.173-0.703,14.23-7.899,13.529-16.073
					            C14.289-9.488,7.094-15.545-1.082-14.843C-9.255-14.14-15.312-6.943-14.609,1.231z M-0.826-11.883
					            c6.538-0.562,12.295,4.284,12.857,10.824c0.563,6.538-4.283,12.295-10.822,12.857C-5.33,12.361-11.087,7.517-11.649,0.976
					            C-12.211-5.563-7.366-11.32-0.826-11.883z" />
                    </g>
                </g>
            </symbol>

            <g id="Layer_1">

                <linearGradient id="XMLID_5_" gradientUnits="userSpaceOnUse" x1="282.5542" y1="343.0659" x2="314.042" y2="343.0659" gradientTransform="matrix(0.6911 0.7227 -0.7227 0.6911 233.5097 -79.7117)">
                    <stop offset="0" style="stop-color:#FFFFFF" />
                    <stop offset="1" style="stop-color:#000000" />
                </linearGradient>
                <path fill="url(#XMLID_5_)" stroke="#000000" d="M202.971,383.996c-6.377,5.725-16.58,5.425-22.787-0.668
			        c-6.209-6.095-6.072-15.677,0.306-21.4c6.377-5.725,16.58-5.426,22.789,0.669C209.486,368.69,209.349,378.271,202.971,383.996z" />

                <linearGradient id="XMLID_6_" gradientUnits="userSpaceOnUse" x1="414.7168" y1="325.9004" x2="451.916" y2="325.9004" gradientTransform="matrix(0.5992 0.6635 -0.7421 0.6702 219.2055 -172.1631)">
                    <stop offset="0" style="stop-color:#FFFFFF" />
                    <stop offset="1" style="stop-color:#000000" />
                </linearGradient>
                <path fill="url(#XMLID_6_)" stroke="#000000" d="M202.43,383.426l-20.898-21.978l90.037-77.352l20.898,21.977L202.43,383.426z" />

                <radialGradient id="XMLID_7_" cx="258.5962" cy="276.1963" r="7.8548" fx="258.5962" fy="276.1963" gradientTransform="matrix(1.5236 0 0 1.4524 -95.5181 -119.9067)" gradientUnits="userSpaceOnUse">
                    <stop offset="0" style="stop-color:#FFFFFF" />
                    <stop offset="0.0949" style="stop-color:#F9F9F9" />
                    <stop offset="0.2194" style="stop-color:#E9E9E9" />
                    <stop offset="0.3604" style="stop-color:#CECECE" />
                    <stop offset="0.5136" style="stop-color:#A8A8A8" />
                    <stop offset="0.6765" style="stop-color:#777777" />
                    <stop offset="0.845" style="stop-color:#3C3C3C" />
                    <stop offset="1" style="stop-color:#000000" />
                </radialGradient>
                <!-- path fill="url(#XMLID_7_)" d="M310.929,281.238c0,6.038-5.059,10.931-11.299,10.931h-2.301c-6.241,0-11.299-4.893-11.299-10.931c0-6.036,5.059-10.929,11.299-10.929h2.301C305.87,270.309,310.929,275.202,310.929,281.238z"/ -->
                <g>
                    <g>
                        <use xlink:href="#Gear" width="42.073" height="42.224" x="-21.037" y="-21.111" transform="matrix(1.3258 0 0 -1.0899 243.0176 362.4346)" />
                        <path fill="none" stroke="#D6A615" stroke-width="5" d="M273.238,362.366c0,13.767-13.529,24.927-30.217,24.927
					    c-16.689,0-30.218-11.16-30.218-24.927s13.528-24.927,30.218-24.927C259.709,337.439,273.238,348.6,273.238,362.366z" />
                        <g>
                            <path d="M209.148,362.403c0,15.348,15.284,27.833,34.071,27.833c18.786,0,34.07-12.485,34.07-27.833
						    s-15.284-27.834-34.07-27.834C224.432,334.569,209.148,347.056,209.148,362.403z M210.148,362.403
						    c0-14.796,14.836-26.834,33.071-26.834c18.235,0,33.07,12.038,33.07,26.834c0,14.796-14.835,26.833-33.07,26.833
						    C224.984,389.236,210.148,377.199,210.148,362.403z" />
                        </g>
                    </g>

                    <radialGradient id="XMLID_8_" cx="98.8716" cy="479.6504" r="7.8555" fx="98.8716" fy="479.6504" gradientTransform="matrix(0.6338 0 0 0.5963 180.4119 76.5175)" gradientUnits="userSpaceOnUse">
                        <stop offset="0" style="stop-color:#FFFFFF" />
                        <stop offset="0.155" style="stop-color:#C3C3C3" />
                        <stop offset="0.3235" style="stop-color:#888888" />
                        <stop offset="0.4864" style="stop-color:#575757" />
                        <stop offset="0.6396" style="stop-color:#313131" />
                        <stop offset="0.7806" style="stop-color:#161616" />
                        <stop offset="0.9051" style="stop-color:#060606" />
                        <stop offset="1" style="stop-color:#000000" />
                    </radialGradient>
                    <path fill="url(#XMLID_8_)" d="M248.256,362.533c0,2.479-2.104,4.488-4.7,4.488h-0.959c-2.595,0-4.699-2.009-4.699-4.488
				    c0-2.479,2.104-4.487,4.699-4.487h0.959C246.152,358.046,248.256,360.055,248.256,362.533z" />
                </g>
            </g>
        </g>

        <!-- path id="CannonBall" fill="url(#XMLID_7_)" d="M135.803,203.205c0,6.038-5.059,10.931-11.299,10.931h-2.301c-6.241,0-11.299-4.893-11.299-10.931c0-6.036,5.059-10.929,11.299-10.929h2.301C130.745,192.275,135.803,197.168,135.803,203.205z"/ -->
        <!-- Set up a 100x50 coodinate system for the cannonball -->
        <g transform="translate(130 290) scale(6.5 6.5) scale(1 -1)">
            <polyline id="CannonBallPath" fill="none" stroke="white" points="" stroke-width="4">
                <!-- animate id="PathAnim" attributeName="opacity" begin="" fill="freeze" dur="" from="1" to="0"/ -->
            </polyline>

            <radialGradient id="CannonShade" gradientUnits="objectBoundingBox" cx="0.35" cy="0.7">
                <stop offset="0" stop-color="#FFFFFF" />
                <stop offset="1" stop-color="#000000" />
            </radialGradient>
            <circle id="CannonBall" fill="url(#CannonShade)" stroke="none" cx="0" cy="0" r="2" display="none" />

            <text id="TrajectoryInfo" transform="matrix(0.75 0 0 -1 -15 -30)" style="font-family:'Lucida Console'; font-size:2;">info</text>

            <!-- attributeType="CSS"  begin="FireButton.mousedown" dur="1.46" repeatDur="1.46" fill="freeze" volume="1"/ -->

        </g>

        <g id="FireButton" onmousedown="OnMouseDownFire(evt)" transform="translate(0 100)" fill-opacity="1">
            <path id="FireButtonFill" fill="#C00000" d="M110.398,340.302c0,6.567-5.489,11.893-12.26,11.893H50.393c-6.771,0-12.259-5.325-12.259-11.893c0-6.568,5.489-11.893,12.259-11.893h47.745C104.909,328.409,110.398,333.733,110.398,340.302z">
                <!--  set attributeName="fill" begin="FireButton.mousedown" to="red" / -->
                <!--  set attributeName="fill" begin="FireButton.mouseout" to="blue" / -->
            </path>
            <text id="FireText" pointer-events="none" transform="matrix(1.0653 0 0 1 59.5942 345.4658)" fill="white" font-family="'ComicSansMS-Bold'" font-size="14.0599">Fire</text>
            <!-- set attributeName="fill-opacity" begin="FireButton.mouseover" to="1.0" / -->
            <!-- set attributeName="fill-opacity" begin="FireButton.mouseout" to="0.3" / -->
        </g>
    </g>
</svg>