<?xml version="1.0" encoding="utf-8"?>
<!-- Generator: Adobe Illustrator 18.1.1, SVG Export Plug-In . SVG Version: 6.00 Build 0)  -->
<svg version="1.1" id="TriGeomMask" xmlns="http://www.w3.org/2000/svg" xmlns:xlink="http://www.w3.org/1999/xlink" x="0px"
	 y="0px" viewBox="0 0 681.2773 618.2539" enable-background="new 0 0 681.2773 618.2539" xml:space="preserve">
<line fill="none" stroke="#000000" stroke-width="2" stroke-miterlimit="10" x1="592.182" y1="50.1341" x2="70.9934" y2="571.3228"/>
<rect x="70.9936" y="50.1341" fill="none" stroke="#000000" stroke-width="2" stroke-miterlimit="10" width="521.1886" height="521.1886"/>
<image overflow="visible" opacity="0.3" width="128" height="128" xlink:href="../../../../../../../dev/Sandbox-NeHe-EPUB/EPUB/lesson09/images/star.jpg"  transform="matrix(4.0656 0 0 4.0656 71.785 49.6719)">
</image>
<text transform="matrix(1 0 0 1 4.959106e-05 35.3014)" fill="#0000FF" font-family="'MyriadPro-Regular'" font-size="42.1757">3</text>
<text transform="matrix(1 0 0 1 641.6413 35.3017)" fill="#0000FF" font-family="'MyriadPro-Regular'" font-size="42.1757">2</text>
<text transform="matrix(1 0 0 1 659.6418 607.7097)" fill="#0000FF" font-family="'MyriadPro-Regular'" font-size="42.1757">1</text>
<g>
	<g>
		<line fill="none" stroke="#000000" stroke-miterlimit="10" x1="383.1659" y1="68.5509" x2="291.7852" y2="68.5509"/>
		<g>
			<path d="M277.7266,68.5509c6.6539-2.4689,14.9098-6.6816,20.0274-11.1435l-4.0306,11.1435l4.0306,11.1412
				C292.6364,75.2301,284.3805,71.0174,277.7266,68.5509z"/>
		</g>
	</g>
</g>
<g>
	<g>
		<line fill="none" stroke="#000000" stroke-miterlimit="10" x1="568.7828" y1="343.8623" x2="568.7828" y2="252.4815"/>
		<g>
			<path d="M568.7828,238.423c2.4689,6.6539,6.6815,14.9098,11.1436,20.0274l-11.1436-4.0306l-11.1412,4.0306
				C562.1035,253.3328,566.316,245.0769,568.7828,238.423z"/>
		</g>
	</g>
</g>
<g>
	<g>
		<line fill="none" stroke="#000000" stroke-miterlimit="10" x1="395.8418" y1="283.2073" x2="331.2841" y2="347.765"/>
		<g>
			<path d="M321.285,357.7641c2.9594-6.4508,5.8184-15.2674,6.2819-22.041l5.0294,10.7297l10.7281,5.0278
				C336.5507,351.9441,327.7341,354.8032,321.285,357.7641z"/>
		</g>
	</g>
</g>
<g>
	<g>
		<line fill="none" stroke="#000000" stroke-miterlimit="10" x1="262.9195" y1="322.5633" x2="327.4771" y2="258.0056"/>
		<g>
			<path d="M337.4763,248.0065c-2.9593,6.4508-5.8184,15.2674-6.2818,22.041l-5.0294-10.7297l-10.7281-5.0278
				C322.2106,253.8262,331.0271,250.9672,337.4763,248.0065z"/>
		</g>
	</g>
</g>
<g>
	<g>
		<line fill="none" stroke="#000000" stroke-miterlimit="10" x1="284.7559" y1="553.567" x2="376.1366" y2="553.567"/>
		<g>
			<path d="M390.1952,553.567c-6.6539,2.4689-14.9098,6.6815-20.0274,11.1436l4.0306-11.1436l-4.0306-11.1412
				C375.2854,546.8878,383.5413,551.1005,390.1952,553.567z"/>
		</g>
	</g>
</g>
<g>
	<g>
		<line fill="none" stroke="#000000" stroke-miterlimit="10" x1="96.139" y1="248.2849" x2="96.139" y2="339.6656"/>
		<g>
			<path d="M96.139,353.7242c-2.4689-6.6539-6.6816-14.9098-11.1435-20.0274l11.1435,4.0306l11.1412-4.0306
				C102.8182,338.8144,98.6056,347.0703,96.139,353.7242z"/>
		</g>
	</g>
</g>
<text transform="matrix(1 0 0 1 321.2864 96.4994)" font-family="'MyriadPro-Regular'" font-size="28.1171">1</text>
<text transform="matrix(1 0 0 1 544.9201 293.4859)" font-family="'MyriadPro-Regular'" font-size="28.1171">1</text>
<text transform="matrix(1 0 0 1 380.1814 335.7233)" font-family="'MyriadPro-Regular'" font-size="28.1171">2</text>
<text transform="matrix(1 0 0 1 107.28 305.9436)" font-family="'MyriadPro-Regular'" font-size="28.1171">2</text>
<text transform="matrix(1 0 0 1 271.7565 276.2985)" font-family="'MyriadPro-Regular'" font-size="28.1171">0</text>
<text transform="matrix(1 0 0 1 337.4763 542.9512)" font-family="'MyriadPro-Regular'" font-size="28.1171">0</text>
<text transform="matrix(1 0 0 1 -4.577637e-05 607.7093)" fill="#0000FF" font-family="'MyriadPro-Regular'" font-size="42.1757">0</text>
<text transform="matrix(1 0 0 1 37.2864 40.4994)" font-family="'MyriadPro-Regular'" font-size="28.1171">(-1,1,0)</text>
<text transform="matrix(1 0 0 1 556.2864 40.4997)" font-family="'MyriadPro-Regular'" font-size="28.1171">(1,1,0)</text>
<text transform="matrix(1 0 0 1 557.6411 600.4998)" font-family="'MyriadPro-Regular'" font-size="28.1171">(1,-1,0)</text>
<text transform="matrix(1 0 0 1 37.2864 596.4998)" font-family="'MyriadPro-Regular'" font-size="28.1171">(-1,-1,0)</text>
<text transform="matrix(1 0 0 1 14.2864 561.7091)" fill="#FF0000" font-family="'MyriadPro-Regular'" font-size="28.1171">(0,0)</text>
<text transform="matrix(1 0 0 1 604.2864 568.0693)" fill="#FF0000" font-family="'MyriadPro-Regular'" font-size="28.1171">(1,0)</text>
<text transform="matrix(1 0 0 1 599.2864 68.551)" fill="#FF0000" font-family="'MyriadPro-Regular'" font-size="28.1171">(1,1)</text>
<text transform="matrix(1 0 0 1 14.2866 68.5512)" fill="#FF0000" font-family="'MyriadPro-Regular'" font-size="28.1171">(0,1)</text>
</svg>
