<?xml version="1.0" encoding="utf-8"?>
<!-- Generator: Adobe Illustrator 18.1.1, SVG Export Plug-In . SVG Version: 6.00 Build 0)  -->
<svg version="1.1" id="TriGeomMask" xmlns="http://www.w3.org/2000/svg" xmlns:xlink="http://www.w3.org/1999/xlink" x="0px"
	 y="0px" viewBox="0 0 640.6377 590.564" enable-background="new 0 0 640.6377 590.564" xml:space="preserve">
<line fill="none" stroke="#000000" stroke-width="2" stroke-miterlimit="10" x1="577.8959" y1="33.1688" x2="56.7073" y2="554.3574"/>
<rect x="56.7075" y="33.1688" fill="none" stroke="#000000" stroke-width="2" stroke-miterlimit="10" width="521.1886" height="521.1886"/>
<image overflow="visible" opacity="0.3" width="128" height="128" xlink:href="../../../../../../../../../dev/Sandbox-NeHe-EPUB/EPUB/lesson09/images/star.jpg"  transform="matrix(4.0656 0 0 4.0656 57.4988 32.7066)">
</image>
<text transform="matrix(1 0 0 1 68.214 69.8361)" font-family="'MyriadPro-Regular'" font-size="42.1757">3</text>
<text transform="matrix(1 0 0 1 546.3552 104.8353)" font-family="'MyriadPro-Regular'" font-size="42.1757">2</text>
<text transform="matrix(1 0 0 1 546.3557 542.7441)" font-family="'MyriadPro-Regular'" font-size="42.1757">1</text>
<g>
	<g>
		<line fill="none" stroke="#000000" stroke-miterlimit="10" x1="368.8798" y1="51.5855" x2="277.4991" y2="51.5855"/>
		<g>
			<path d="M263.4405,51.5855c6.6539-2.4689,14.9098-6.6816,20.0274-11.1435l-4.0306,11.1435l4.0306,11.1412
				C278.3503,58.2648,270.0944,54.0521,263.4405,51.5855z"/>
		</g>
	</g>
</g>
<g>
	<g>
		<line fill="none" stroke="#000000" stroke-miterlimit="10" x1="554.4966" y1="326.8969" x2="554.4966" y2="235.5162"/>
		<g>
			<path d="M554.4966,221.4576c2.4689,6.6539,6.6815,14.9098,11.1436,20.0274l-11.1436-4.0306l-11.1412,4.0306
				C547.8174,236.3675,552.0298,228.1116,554.4966,221.4576z"/>
		</g>
	</g>
</g>
<g>
	<g>
		<line fill="none" stroke="#000000" stroke-miterlimit="10" x1="381.5557" y1="266.242" x2="316.998" y2="330.7997"/>
		<g>
			<path d="M306.9988,340.7988c2.9594-6.4508,5.8184-15.2674,6.2819-22.041l5.0294,10.7297l10.7281,5.0278
				C322.2646,334.9788,313.448,337.8378,306.9988,340.7988z"/>
		</g>
	</g>
</g>
<g>
	<g>
		<line fill="none" stroke="#000000" stroke-miterlimit="10" x1="248.6333" y1="305.598" x2="313.191" y2="241.0403"/>
		<g>
			<path d="M323.1902,231.0411c-2.9593,6.4508-5.8184,15.2674-6.2818,22.041l-5.0294-10.7297l-10.7281-5.0278
				C307.9244,236.8609,316.741,234.0018,323.1902,231.0411z"/>
		</g>
	</g>
</g>
<g>
	<g>
		<line fill="none" stroke="#000000" stroke-miterlimit="10" x1="270.4698" y1="536.6017" x2="361.8505" y2="536.6017"/>
		<g>
			<path d="M375.9091,536.6017c-6.6539,2.4689-14.9098,6.6815-20.0274,11.1436l4.0306-11.1436l-4.0306-11.1412
				C360.9993,529.9225,369.2552,534.1351,375.9091,536.6017z"/>
		</g>
	</g>
</g>
<g>
	<g>
		<line fill="none" stroke="#000000" stroke-miterlimit="10" x1="81.8529" y1="231.3195" x2="81.8529" y2="322.7003"/>
		<g>
			<path d="M81.8529,336.7589c-2.4689-6.6539-6.6816-14.9098-11.1435-20.0274l11.1435,4.0306l11.1412-4.0306
				C88.5321,321.849,84.3195,330.1049,81.8529,336.7589z"/>
		</g>
	</g>
</g>
<text transform="matrix(1 0 0 1 307.0003 79.534)" font-family="'MyriadPro-Regular'" font-size="28.1171">1</text>
<text transform="matrix(1 0 0 1 530.634 276.5206)" font-family="'MyriadPro-Regular'" font-size="28.1171">1</text>
<text transform="matrix(1 0 0 1 365.8953 318.758)" font-family="'MyriadPro-Regular'" font-size="28.1171">2</text>
<text transform="matrix(1 0 0 1 92.9939 288.9783)" font-family="'MyriadPro-Regular'" font-size="28.1171">2</text>
<text transform="matrix(1 0 0 1 257.4704 259.3332)" font-family="'MyriadPro-Regular'" font-size="28.1171">0</text>
<text transform="matrix(1 0 0 1 323.1902 525.9859)" font-family="'MyriadPro-Regular'" font-size="28.1171">0</text>
<text transform="matrix(1 0 0 1 107.2138 542.744)" font-family="'MyriadPro-Regular'" font-size="42.1757">0</text>
<text transform="matrix(1 0 0 1 23.0003 23.534)" font-family="'MyriadPro-Regular'" font-size="28.1171">(-1,1,0)</text>
<text transform="matrix(1 0 0 1 542.0002 23.5344)" font-family="'MyriadPro-Regular'" font-size="28.1171">(1,1,0)</text>
<text transform="matrix(1 0 0 1 543.3549 583.5344)" font-family="'MyriadPro-Regular'" font-size="28.1171">(1,-1,0)</text>
<text transform="matrix(1 0 0 1 23.0002 579.5344)" font-family="'MyriadPro-Regular'" font-size="28.1171">(-1,-1,0)</text>
<text transform="matrix(1 0 0 1 0.0002 544.7438)" fill="#FF0000" font-family="'MyriadPro-Regular'" font-size="28.1171">(0,0)</text>
<text transform="matrix(1 0 0 1 590.0002 551.104)" fill="#FF0000" font-family="'MyriadPro-Regular'" font-size="28.1171">(1,0)</text>
<text transform="matrix(1 0 0 1 585.0002 51.5857)" fill="#FF0000" font-family="'MyriadPro-Regular'" font-size="28.1171">(1,1)</text>
<text transform="matrix(1 0 0 1 0.0005 51.5858)" fill="#FF0000" font-family="'MyriadPro-Regular'" font-size="28.1171">(0,1)</text>
</svg>
