<?xml version="1.0" encoding="UTF-8"?>
<svg xmlns="http://www.w3.org/2000/svg" xmlns:xlink="http://www.w3.org/1999/xlink" width="100%"
	 viewBox="0 0 1200 1900" style="overflow:hidden;" xml:space="preserve">

	<g> <!-- transform="rotate(-90) translate(-1100 0)" -->

	<defs>
		<filter id="Water" filterUnits="objectBoundingBox" x="0%" y="0%" width="100%" height="100%">
			<feTurbulence type="fractalNoise" baseFrequency="0.99" numOctaves="4"/>
			<feComponentTransfer>
				<feFuncR type="table" tableValues="0 0"/>
				<feFuncG type="table" tableValues="0 0"/>
				<feFuncB type="linear" slope="0.25" intercept="2"/>
				<feFuncA type="identity"/>
			</feComponentTransfer>
		</filter>

		<filter id="Blur">
			<feGaussianBlur stdDeviation="0.05" />
		</filter>
  
		<filter id="Emboss" >
			<feGaussianBlur in="SourceAlpha" stdDeviation="4" result="blur"/>
			<feOffset in="blur" dx="4" dy="4" result="offsetBlur"/>
			<feSpecularLighting in="blur" surfaceScale="5" specularConstant=".75" specularExponent="20" lighting-color="#bbbbbb" result="specOut">
				<fePointLight x="-5000" y="-10000" z="20000"/>
			</feSpecularLighting>
			<feComposite in="specOut" in2="SourceAlpha" operator="in" result="specOut"/>
			<feComposite in="SourceGraphic" in2="specOut" operator="arithmetic" k1="0" k2="1" k3="1" k4="0" result="litPaint"/>
			<feMerge>
				<feMergeNode in="offsetBlur"/>
				<feMergeNode in="litPaint"/>
			</feMerge>
		</filter>
    </defs>

	<g transform=" scale( 25 -25 ) translate(93 -36) " fill="tan" stroke="black" stroke-width="0.04">
	
		<path d="M-100 10h60v40h-60z" fill="#2A8CBE" />

		<g fill="none" stroke="cyan" stroke-width="0.001" >
			<line x1="-100" y1="10" x2="-100" y2="50" />
			<line x1="-90" y1="10" x2="-90" y2="50" />
			<line x1="-80" y1="10" x2="-80" y2="50" />
			<line x1="-70" y1="10" x2="-70" y2="50" />
			<line x1="-60" y1="10" x2="-60" y2="50" />
			<line x1="-50" y1="10" x2="-50" y2="50" />
			<line x1="-40" y1="10" x2="-40" y2="50" />

			<line x1="-100" y1="10" x2="-40" y2="10" />
			<line x1="-100" y1="20" x2="-40" y2="20" />
			<line x1="-100" y1="30" x2="-40" y2="30" />
			<line x1="-100" y1="40" x2="-40" y2="40" />
			<line x1="-100" y1="50" x2="-40" y2="50" />
		</g>

		<!-- Southeast US -->
		<path d="M-83.989 34.989L-84.118 34.988L-84.324 34.989L-84.291 35.211L-84.226 35.262L-84.180 35.241L-84.102 35.246L-84.043 35.273L-84.031 35.293L-84.029 35.325L-84.006 35.373L-84.013 35.408L-83.955 35.455L-83.910 35.476L-83.881 35.511L-83.830 35.519L-83.776 35.553L-83.673 35.565L-83.614 35.572L-83.561 35.555L-83.506 35.560L-83.458 35.597L-83.387 35.625L-83.343 35.653L-83.298 35.656
			L-83.259 35.691L-83.253 35.701L-83.244 35.718L-83.185 35.729L-83.144 35.763L-83.118 35.764L-83.060 35.783L-82.987 35.774L-82.963 35.792L-82.907 35.872L-82.914 35.928L-82.896 35.948L-82.856 35.947L-82.809 35.921L-82.776 35.957L-82.774 35.988L-82.763 36.000L-82.644 36.052L-82.628 36.054L-82.604 36.043L-82.592 36.022L-82.606 36.004L-82.599 35.963L-82.554 35.956L-82.507 35.973
			L-82.475 35.993L-82.408 36.075L-82.374 36.099L-82.312 36.122L-82.262 36.120L-82.208 36.147L-82.154 36.140L-82.118 36.096L-82.078 36.100L-82.020 36.130L-81.933 36.263L-81.911 36.291L-81.831 36.335L-81.730 36.329L-81.709 36.334L-81.740 36.362L-81.741 36.392L-81.698 36.472L-81.703 36.519L-81.670 36.590L-81.345 36.573L-80.903 36.565L-80.838 36.563L-80.611 36.557L-80.435 36.551
			L-80.048 36.547L-80.024 36.545L-79.717 36.548L-79.510 36.548L-79.217 36.550L-79.144 36.546L-78.797 36.544L-78.737 36.546L-78.459 36.541L-78.321 36.546L-78.052 36.552L-77.899 36.553L-77.764 36.553L-77.320 36.554L-77.177 36.556L-76.924 36.554L-76.922 36.554L-76.564 36.555L-76.498 36.556L-76.330 36.556L-76.127 36.557L-76.046 36.557L-76.033 36.514L-76.091 36.504L-75.976 36.436
			L-75.970 36.415L-76.002 36.419L-75.951 36.365L-75.928 36.423L-75.925 36.351L-75.800 36.113L-75.799 36.073L-75.855 36.106L-75.914 36.245L-75.958 36.259L-75.942 36.294L-76.009 36.320L-75.957 36.194L-75.981 36.170L-76.183 36.315L-76.219 36.297L-76.113 36.174L-76.142 36.148L-76.235 36.163L-76.299 36.214L-76.276 36.110L-76.481 36.080L-76.420 36.059L-76.523 36.007L-76.594 36.010
			L-76.649 36.066L-76.633 36.037L-76.690 36.050L-76.727 36.157L-76.689 36.295L-76.777 36.358L-76.924 36.392L-76.741 36.315L-76.707 36.266L-76.745 36.234L-76.761 36.145L-76.694 35.993L-76.741 35.937L-76.697 35.942L-76.409 35.977L-76.371 35.932L-76.214 35.977L-76.090 35.963L-76.026 35.920L-76.076 35.757L-76.043 35.684L-76.167 35.697L-76.105 35.664L-76.021 35.669L-75.988 35.893
			L-75.818 35.924L-75.749 35.869L-75.729 35.665L-75.779 35.579L-75.891 35.631L-76.053 35.415L-76.182 35.342L-76.499 35.416L-76.534 35.450L-76.458 35.504L-76.447 35.551L-76.519 35.578L-76.493 35.542L-76.638 35.520L-76.629 35.438L-76.705 35.412L-77.104 35.550L-76.983 35.437L-76.695 35.350L-76.615 35.273L-76.591 35.312L-76.541 35.304L-76.507 35.249L-76.640 35.173L-76.605 35.139
			L-76.624 35.064L-76.678 35.024L-76.849 34.982L-76.941 35.027L-76.943 35.070L-77.048 35.092L-77.105 35.088L-77.111 35.066L-77.001 35.053L-76.913 34.936L-76.647 34.906L-76.670 34.970L-76.530 34.975L-76.445 35.017L-76.424 34.946L-76.364 34.943L-76.329 34.976L-76.315 34.949L-76.470 34.785L-76.625 34.720L-77.051 34.699L-77.149 34.764L-77.129 34.685L-77.157 34.661L-77.539 34.457
			L-77.587 34.421L-77.610 34.435L-77.603 34.413L-77.751 34.305L-77.864 34.193L-77.894 34.069L-77.927 34.062L-77.961 34.189L-77.959 33.993L-78.035 33.914L-78.580 33.882L-78.656 33.949L-79.075 34.305L-79.447 34.619L-79.456 34.634L-79.668 34.801L-79.686 34.805L-79.920 34.808L-80.325 34.815L-80.562 34.815L-80.800 34.816L-80.786 34.941L-80.840 35.002L-80.895 35.060L-80.928 35.101
			L-81.040 35.037L-81.066 35.066L-81.028 35.105L-81.049 35.132L-81.049 35.152L-81.323 35.164L-81.362 35.163L-81.765 35.182L-81.871 35.183L-81.971 35.188L-82.210 35.193L-82.278 35.195L-82.321 35.184L-82.351 35.193L-82.360 35.183L-82.371 35.183L-82.390 35.208L-82.438 35.170L-82.467 35.174L-82.525 35.155L-82.570 35.149L-82.654 35.119L-82.686 35.121L-82.688 35.098L-82.697 35.091
			L-82.771 35.085L-82.888 35.055L-83.007 35.024L-83.106 35.000L-83.513 34.992L-83.549 34.990L-83.938 34.989z"/>
		<path d="M-76.027 36.557L-75.999 36.557L-75.912 36.543L-75.925 36.474L-75.977 36.478L-75.976 36.518z"/>
		<path d="M-75.902 36.556L-75.878 36.556L-75.773 36.229L-75.545 35.788L-75.703 36.050L-75.741 36.050L-75.783 36.225z"/>
		<path d="M-75.491 35.670L-75.534 35.769L-75.457 35.617L-75.526 35.228L-75.749 35.190L-75.692 35.235L-75.521 35.281L-75.475 35.564z"/>
		<path d="M-76.017 35.069L-75.976 35.116L-75.854 35.167L-75.764 35.192L-75.812 35.164L-75.904 35.132L-76.003 35.069z"/>
		<path d="M-76.544 34.588L-76.555 34.611L-76.538 34.614L-76.484 34.698L-76.432 34.761L-76.375 34.813L-76.288 34.877L-76.469 34.693z"/>
		<path d="M-83.955 35.455L-84.013 35.408L-84.006 35.373L-84.029 35.325L-84.031 35.293L-84.043 35.273L-84.102 35.246L-84.180 35.241L-84.226 35.262L-84.291 35.211L-84.324 34.989L-84.619 34.989L-84.771 34.991L-84.800 34.993L-84.968 34.993L-84.973 34.993L-85.268 34.989L-85.360 34.990L-85.467 34.990L-85.609 34.990L-85.870 34.992L-86.304 34.995L-86.313 34.995L-86.782 34.997L-86.833 34.998
			L-87.208 35.008L-87.223 35.007L-87.608 35.010L-87.986 35.016L-88.195 35.013L-88.194 35.004L-88.352 35.004L-88.383 35.005L-88.785 35.003L-88.812 35.002L-89.006 35.000L-89.198 35.001L-89.342 35.000L-89.646 35.001L-89.717 34.999L-90.305 35.001L-90.292 35.048L-90.196 35.041L-90.169 35.078L-90.178 35.109L-90.164 35.130L-90.144 35.137L-90.083 35.125L-90.065 35.147L-90.062 35.167
			L-90.073 35.192L-90.069 35.213L-90.090 35.254L-90.106 35.264L-90.152 35.264L-90.170 35.283L-90.157 35.306L-90.106 35.315L-90.099 35.346L-90.106 35.366L-90.087 35.382L-90.075 35.407L-90.085 35.418L-90.112 35.418L-90.132 35.408L-90.140 35.383L-90.168 35.384L-90.173 35.424L-90.137 35.443L-90.102 35.474L-90.082 35.478L-90.075 35.472L-90.074 35.427L-90.060 35.413L-90.047 35.417
			L-90.000 35.445L-90.042 35.512L-90.041 35.543L-90.033 35.552L-89.990 35.562L-89.962 35.532L-89.948 35.527L-89.931 35.529L-89.922 35.546L-89.958 35.579L-89.957 35.603L-89.877 35.633L-89.864 35.630L-89.849 35.645L-89.857 35.671L-89.865 35.673L-89.893 35.656L-89.930 35.676L-89.952 35.712L-89.951 35.734L-89.910 35.755L-89.860 35.748L-89.827 35.758L-89.800 35.774L-89.790 35.806
			L-89.760 35.817L-89.736 35.807L-89.701 35.828L-89.701 35.842L-89.758 35.871L-89.766 35.884L-89.763 35.897L-89.738 35.915L-89.715 35.911L-89.665 35.886L-89.649 35.894L-89.645 35.914L-89.664 35.938L-89.713 35.966L-89.722 36.000L-89.689 36.026L-89.678 36.083L-89.667 36.099L-89.589 36.130L-89.589 36.152L-89.619 36.184L-89.677 36.221L-89.696 36.241L-89.695 36.252L-89.671 36.255
			L-89.618 36.241L-89.542 36.257L-89.535 36.265L-89.542 36.281L-89.607 36.308L-89.623 36.335L-89.606 36.355L-89.545 36.346L-89.519 36.356L-89.520 36.401L-89.545 36.441L-89.516 36.472L-89.533 36.498L-89.476 36.499L-89.492 36.465L-89.471 36.446L-89.449 36.456L-89.415 36.503L-89.347 36.503L-88.830 36.500L-88.826 36.500L-88.811 36.499L-88.513 36.499L-88.496 36.498L-88.043 36.497
			L-88.035 36.538L-88.041 36.583L-88.071 36.680L-87.871 36.669L-87.854 36.641L-87.694 36.644L-87.641 36.645L-87.347 36.649L-87.113 36.651L-87.068 36.651L-86.771 36.652L-86.511 36.655L-86.415 36.651L-86.199 36.643L-85.981 36.633L-85.785 36.627L-85.437 36.618L-85.300 36.626L-85.273 36.626L-84.999 36.621L-84.791 36.605L-84.782 36.605L-84.257 36.595L-84.255 36.595L-84.007 36.592
			L-83.936 36.591L-83.696 36.584L-83.675 36.599L-83.464 36.599L-83.275 36.600L-83.248 36.590L-83.211 36.588L-82.987 36.591L-82.850 36.591L-82.611 36.591L-82.297 36.592L-82.217 36.594L-82.154 36.595L-81.929 36.596L-81.918 36.613L-81.829 36.611L-81.652 36.608L-81.670 36.590L-81.703 36.519L-81.698 36.472L-81.741 36.392L-81.740 36.362L-81.709 36.334L-81.730 36.329L-81.831 36.335
			L-81.911 36.291L-81.933 36.263L-82.020 36.130L-82.078 36.100L-82.118 36.096L-82.154 36.140L-82.208 36.147L-82.262 36.120L-82.312 36.122L-82.374 36.099L-82.408 36.075L-82.475 35.993L-82.507 35.973L-82.554 35.956L-82.599 35.963L-82.606 36.004L-82.592 36.022L-82.604 36.043L-82.628 36.054L-82.644 36.052L-82.763 36.000L-82.774 35.988L-82.776 35.957L-82.809 35.921L-82.856 35.947
			L-82.896 35.948L-82.914 35.928L-82.907 35.872L-82.963 35.792L-82.987 35.774L-83.060 35.783L-83.118 35.764L-83.144 35.763L-83.185 35.729L-83.244 35.718L-83.253 35.701L-83.259 35.691L-83.298 35.656L-83.343 35.653L-83.387 35.625L-83.458 35.597L-83.506 35.560L-83.561 35.555L-83.614 35.572L-83.673 35.565L-83.776 35.553L-83.830 35.519L-83.881 35.511L-83.910 35.476z"/>
		<path d="M-85.070 31.981L-85.115 31.907L-85.136 31.855L-85.132 31.784L-85.130 31.779L-85.115 31.731L-85.119 31.708L-85.111 31.684L-85.059 31.621L-85.043 31.554L-85.043 31.519L-85.066 31.476L-85.061 31.440L-85.088 31.367L-85.083 31.332L-85.081 31.303L-85.103 31.271L-85.094 31.227L-85.103 31.197L-85.093 31.172L-85.069 31.162L-85.038 31.127L-85.017 31.080L-85.002 31.001L-85.485 31.001
			L-85.487 31.001L-86.032 30.993L-86.182 30.995L-86.384 30.991L-86.702 30.998L-86.779 30.998L-87.163 31.003L-87.599 31.002L-87.590 30.954L-87.626 30.877L-87.616 30.848L-87.542 30.786L-87.527 30.748L-87.460 30.706L-87.419 30.693L-87.399 30.668L-87.393 30.620L-87.422 30.556L-87.445 30.531L-87.419 30.482L-87.405 30.440L-87.466 30.360L-87.588 30.319L-87.593 30.278L-87.795 30.234
			L-88.003 30.233L-87.780 30.272L-87.758 30.299L-87.903 30.421L-87.913 30.621L-88.020 30.744L-88.136 30.337L-88.320 30.404L-88.401 30.393L-88.417 30.736L-88.429 31.001L-88.435 31.121L-88.451 31.435L-88.465 31.702L-88.473 31.889L-88.438 32.228L-88.426 32.309L-88.394 32.580L-88.348 32.925L-88.339 32.987L-88.305 33.289L-88.275 33.539L-88.248 33.743L-88.203 34.059L-88.199 34.090
			L-88.168 34.324L-88.151 34.465L-88.136 34.580L-88.090 34.896L-88.109 34.900L-88.143 34.930L-88.194 35.004L-88.195 35.013L-87.986 35.016L-87.608 35.010L-87.223 35.007L-87.208 35.008L-86.833 34.998L-86.782 34.997L-86.313 34.995L-86.304 34.995L-85.870 34.992L-85.609 34.990L-85.583 34.862L-85.535 34.622L-85.526 34.585L-85.512 34.523L-85.460 34.290L-85.417 34.087L-85.396 33.960
			L-85.384 33.905L-85.335 33.655L-85.305 33.490L-85.294 33.426L-85.234 33.129L-85.234 33.120L-85.181 32.872L-85.162 32.807L-85.128 32.777L-85.133 32.756L-85.125 32.744L-85.114 32.734L-85.108 32.690L-85.091 32.676L-85.104 32.646L-85.086 32.628L-85.084 32.603L-85.071 32.581L-84.996 32.519L-84.990 32.455L-84.965 32.429L-84.971 32.397L-84.985 32.387L-84.972 32.371L-85.002 32.347
			L-85.005 32.329L-84.921 32.293L-84.895 32.269L-84.894 32.259L-84.905 32.249L-84.924 32.247L-84.916 32.228L-84.928 32.218L-84.976 32.212L-84.960 32.192L-85.008 32.179L-85.024 32.166L-85.053 32.126L-85.046 32.091L-85.057 32.069L-85.062 32.050L-85.057 32.017z"/>
		<path d="M-88.451 31.435L-88.435 31.121L-88.429 31.001L-88.417 30.736L-88.401 30.393L-88.399 30.353L-88.464 30.326L-88.578 30.381L-88.683 30.342L-88.874 30.430L-88.930 30.417L-88.886 30.398L-89.276 30.315L-89.273 30.372L-89.335 30.380L-89.357 30.365L-89.318 30.319L-89.416 30.256L-89.438 30.201L-89.574 30.195L-89.610 30.241L-89.606 30.248L-89.622 30.257L-89.626 30.290L-89.639 30.296
			L-89.637 30.312L-89.619 30.324L-89.620 30.343L-89.633 30.355L-89.647 30.355L-89.655 30.379L-89.675 30.400L-89.675 30.445L-89.683 30.463L-89.695 30.468L-89.696 30.478L-89.713 30.481L-89.719 30.496L-89.732 30.498L-89.755 30.515L-89.773 30.551L-89.791 30.554L-89.820 30.624L-89.805 30.649L-89.819 30.651L-89.829 30.671L-89.845 30.666L-89.835 30.676L-89.842 30.679L-89.841 30.700
			L-89.831 30.704L-89.844 30.712L-89.836 30.729L-89.823 30.733L-89.825 30.742L-89.813 30.748L-89.825 30.790L-89.811 30.812L-89.796 30.812L-89.796 30.829L-89.775 30.830L-89.785 30.861L-89.766 30.862L-89.763 30.900L-89.747 30.903L-89.746 30.910L-89.758 30.921L-89.740 30.926L-89.748 30.950L-89.739 30.965L-89.720 30.975L-89.727 30.984L-89.724 31.001L-89.733 31.007L-89.833 31.007
			L-90.259 31.007L-90.344 31.005L-90.543 31.002L-90.560 31.002L-90.830 31.001L-91.057 31.000L-91.179 31.000L-91.632 31.001L-91.628 31.012L-91.573 31.032L-91.552 31.058L-91.565 31.082L-91.620 31.128L-91.591 31.178L-91.601 31.214L-91.637 31.241L-91.644 31.271L-91.634 31.278L-91.557 31.270L-91.517 31.283L-91.502 31.299L-91.506 31.323L-91.543 31.347L-91.544 31.369L-91.534 31.383
			L-91.559 31.388L-91.568 31.421L-91.552 31.433L-91.535 31.434L-91.534 31.409L-91.523 31.392L-91.495 31.375L-91.481 31.378L-91.466 31.404L-91.473 31.420L-91.508 31.453L-91.506 31.526L-91.503 31.535L-91.464 31.543L-91.423 31.563L-91.404 31.586L-91.415 31.602L-91.497 31.604L-91.509 31.622L-91.508 31.644L-91.498 31.651L-91.457 31.627L-91.408 31.625L-91.389 31.654L-91.388 31.717
			L-91.365 31.752L-91.370 31.753L-91.340 31.758L-91.283 31.750L-91.264 31.760L-91.263 31.774L-91.336 31.763L-91.367 31.771L-91.347 31.796L-91.335 31.843L-91.303 31.863L-91.293 31.861L-91.277 31.827L-91.251 31.819L-91.241 31.835L-91.265 31.865L-91.244 31.879L-91.201 31.914L-91.163 31.988L-91.108 31.992L-91.072 32.021L-91.073 32.032L-91.087 32.044L-91.143 32.066L-91.146 32.086
			L-91.126 32.088L-91.089 32.057L-91.065 32.059L-91.074 32.094L-91.041 32.108L-91.011 32.134L-91.004 32.169L-91.024 32.170L-91.054 32.185L-91.045 32.159L-91.054 32.134L-91.083 32.149L-91.109 32.135L-91.157 32.145L-91.167 32.172L-91.157 32.206L-91.116 32.226L-91.101 32.215L-91.088 32.232L-91.062 32.233L-91.042 32.249L-90.977 32.223L-90.971 32.269L-90.984 32.287L-90.981 32.298
			L-90.972 32.304L-90.929 32.297L-90.916 32.305L-90.875 32.380L-90.885 32.381L-90.915 32.346L-90.985 32.356L-90.999 32.366L-91.009 32.397L-90.970 32.419L-90.965 32.440L-90.987 32.453L-91.027 32.442L-91.059 32.447L-91.118 32.499L-91.119 32.524L-91.089 32.549L-91.037 32.497L-91.020 32.491L-90.992 32.495L-90.995 32.512L-91.063 32.542L-91.073 32.562L-91.059 32.576L-91.032 32.583
			L-90.999 32.615L-90.996 32.626L-91.008 32.643L-91.027 32.642L-91.048 32.614L-91.064 32.606L-91.111 32.598L-91.146 32.645L-91.140 32.663L-91.059 32.724L-91.098 32.749L-91.136 32.751L-91.156 32.763L-91.142 32.841L-91.080 32.877L-91.076 32.954L-91.093 32.988L-91.112 32.987L-91.132 32.975L-91.130 32.937L-91.137 32.918L-91.170 32.905L-91.198 32.914L-91.209 32.936L-91.162 33.000
			L-91.162 33.013L-91.161 33.022L-91.157 33.040L-91.124 33.047L-91.118 33.066L-91.147 33.091L-91.191 33.113L-91.196 33.140L-91.178 33.150L-91.121 33.131L-91.096 33.145L-91.086 33.162L-91.092 33.226L-91.055 33.246L-91.040 33.282L-91.054 33.294L-91.076 33.292L-91.103 33.249L-91.123 33.269L-91.142 33.322L-91.130 33.359L-91.107 33.393L-91.079 33.410L-91.062 33.432L-91.061 33.460
			L-91.074 33.466L-91.086 33.463L-91.099 33.415L-91.138 33.389L-91.185 33.392L-91.204 33.414L-91.199 33.422L-91.131 33.443L-91.120 33.453L-91.119 33.470L-91.129 33.493L-91.165 33.512L-91.174 33.504L-91.172 33.467L-91.182 33.447L-91.233 33.443L-91.227 33.459L-91.208 33.473L-91.180 33.512L-91.183 33.523L-91.204 33.539L-91.213 33.539L-91.228 33.556L-91.227 33.590L-91.188 33.575
			L-91.168 33.577L-91.151 33.616L-91.154 33.637L-91.205 33.670L-91.215 33.691L-91.212 33.709L-91.163 33.718L-91.121 33.678L-91.084 33.663L-91.038 33.683L-91.039 33.705L-91.056 33.719L-91.105 33.708L-91.129 33.712L-91.138 33.723L-91.143 33.772L-91.137 33.780L-91.105 33.776L-91.066 33.787L-91.043 33.770L-91.018 33.764L-90.995 33.772L-90.984 33.785L-90.990 33.799L-91.029 33.817
			L-91.055 33.844L-91.061 33.867L-91.018 33.936L-91.076 33.975L-91.089 33.994L-91.070 34.006L-91.031 33.986L-91.010 33.991L-91.000 33.968L-90.987 33.961L-90.965 33.967L-90.961 33.979L-90.975 33.995L-90.973 34.011L-90.950 34.031L-90.886 34.041L-90.866 34.101L-90.906 34.103L-90.942 34.126L-90.953 34.156L-90.929 34.186L-90.847 34.148L-90.829 34.149L-90.808 34.166L-90.823 34.191
			L-90.921 34.205L-90.934 34.235L-90.928 34.250L-90.863 34.219L-90.831 34.230L-90.824 34.277L-90.806 34.299L-90.793 34.300L-90.758 34.279L-90.748 34.318L-90.762 34.364L-90.755 34.372L-90.687 34.378L-90.681 34.363L-90.689 34.320L-90.679 34.318L-90.658 34.330L-90.657 34.366L-90.604 34.405L-90.579 34.433L-90.574 34.454L-90.590 34.497L-90.580 34.520L-90.566 34.533L-90.537 34.543
			L-90.531 34.556L-90.578 34.605L-90.588 34.628L-90.579 34.646L-90.561 34.700L-90.539 34.686L-90.548 34.652L-90.539 34.637L-90.509 34.638L-90.466 34.672L-90.470 34.704L-90.514 34.702L-90.533 34.713L-90.548 34.790L-90.527 34.807L-90.516 34.806L-90.501 34.790L-90.499 34.766L-90.517 34.748L-90.504 34.730L-90.486 34.727L-90.451 34.741L-90.449 34.761L-90.467 34.800L-90.452 34.825
			L-90.475 34.858L-90.471 34.881L-90.438 34.886L-90.428 34.873L-90.434 34.835L-90.422 34.832L-90.404 34.841L-90.341 34.861L-90.323 34.850L-90.302 34.852L-90.299 34.865L-90.296 34.883L-90.267 34.897L-90.243 34.921L-90.242 34.939L-90.248 34.950L-90.300 34.978L-90.305 35.001L-89.717 34.999L-89.646 35.001L-89.342 35.000L-89.198 35.001L-89.006 35.000L-88.812 35.002L-88.785 35.003
			L-88.383 35.005L-88.352 35.004L-88.194 35.004L-88.143 34.930L-88.109 34.900L-88.090 34.896L-88.136 34.580L-88.151 34.465L-88.168 34.324L-88.199 34.090L-88.203 34.059L-88.248 33.743L-88.275 33.539L-88.305 33.289L-88.339 32.987L-88.348 32.925L-88.394 32.580L-88.426 32.309L-88.438 32.228L-88.473 31.889L-88.465 31.702z"/>
		<path d="M-85.130 31.779L-85.132 31.784L-85.136 31.855L-85.115 31.907L-85.070 31.981L-85.057 32.017L-85.062 32.050L-85.057 32.069L-85.046 32.091L-85.053 32.126L-85.024 32.166L-85.008 32.179L-84.960 32.192L-84.976 32.212L-84.928 32.218L-84.916 32.228L-84.924 32.247L-84.905 32.249L-84.894 32.259L-84.895 32.269L-84.921 32.293L-85.005 32.329L-85.002 32.347L-84.972 32.371L-84.985 32.387
			L-84.971 32.397L-84.965 32.429L-84.990 32.455L-84.996 32.519L-85.071 32.581L-85.084 32.603L-85.086 32.628L-85.104 32.646L-85.091 32.676L-85.108 32.690L-85.114 32.734L-85.125 32.744L-85.133 32.756L-85.128 32.777L-85.162 32.807L-85.181 32.872L-85.234 33.120L-85.234 33.129L-85.294 33.426L-85.305 33.490L-85.335 33.655L-85.384 33.905L-85.396 33.960L-85.417 34.087L-85.460 34.290
			L-85.512 34.523L-85.526 34.585L-85.535 34.622L-85.583 34.862L-85.609 34.990L-85.467 34.990L-85.360 34.990L-85.268 34.989L-84.973 34.993L-84.968 34.993L-84.800 34.993L-84.771 34.991L-84.619 34.989L-84.324 34.989L-84.118 34.988L-83.989 34.989L-83.938 34.989L-83.549 34.990L-83.513 34.992L-83.106 35.000L-83.101 34.984L-83.116 34.955L-83.122 34.961L-83.127 34.954L-83.113 34.936
			L-83.126 34.941L-83.138 34.930L-83.155 34.932L-83.158 34.918L-83.182 34.911L-83.204 34.884L-83.220 34.889L-83.233 34.874L-83.243 34.878L-83.236 34.862L-83.250 34.850L-83.251 34.840L-83.268 34.839L-83.270 34.815L-83.303 34.805L-83.323 34.787L-83.324 34.752L-83.350 34.727L-83.351 34.710L-83.340 34.678L-83.299 34.663L-83.237 34.613L-83.165 34.599L-83.159 34.577L-83.137 34.568
			L-83.108 34.535L-83.079 34.519L-83.055 34.490L-83.008 34.471L-82.982 34.476L-82.905 34.478L-82.868 34.457L-82.844 34.413L-82.837 34.371L-82.809 34.340L-82.783 34.290L-82.764 34.281L-82.758 34.233L-82.743 34.205L-82.736 34.170L-82.660 34.108L-82.603 34.035L-82.596 34.013L-82.574 33.969L-82.577 33.959L-82.518 33.931L-82.457 33.878L-82.425 33.860L-82.391 33.854L-82.366 33.836
			L-82.351 33.835L-82.311 33.804L-82.306 33.783L-82.266 33.761L-82.235 33.690L-82.214 33.681L-82.192 33.624L-82.167 33.615L-82.139 33.594L-82.117 33.595L-82.066 33.574L-82.039 33.547L-82.020 33.539L-81.997 33.520L-81.981 33.491L-81.937 33.471L-81.917 33.451L-81.927 33.436L-81.914 33.415L-81.940 33.408L-81.926 33.376L-81.945 33.377L-81.937 33.350L-81.912 33.349L-81.912 33.332
			L-81.894 33.335L-81.877 33.307L-81.866 33.316L-81.840 33.308L-81.861 33.297L-81.827 33.269L-81.840 33.273L-81.837 33.260L-81.854 33.243L-81.811 33.226L-81.802 33.208L-81.780 33.217L-81.770 33.214L-81.760 33.195L-81.764 33.170L-81.741 33.145L-81.704 33.123L-81.611 33.088L-81.596 33.071L-81.560 33.061L-81.548 33.044L-81.530 33.044L-81.509 33.013L-81.493 33.005L-81.498 32.960
			L-81.510 32.955L-81.510 32.947L-81.477 32.897L-81.465 32.898L-81.483 32.876L-81.459 32.871L-81.455 32.844L-81.433 32.842L-81.424 32.832L-81.430 32.820L-81.421 32.809L-81.430 32.786L-81.416 32.757L-81.423 32.750L-81.408 32.742L-81.421 32.701L-81.407 32.687L-81.400 32.651L-81.412 32.625L-81.385 32.596L-81.366 32.588L-81.367 32.582L-81.352 32.583L-81.341 32.571L-81.299 32.567
			L-81.274 32.555L-81.268 32.534L-81.236 32.520L-81.195 32.464L-81.200 32.420L-81.178 32.387L-81.179 32.372L-81.158 32.339L-81.142 32.348L-81.132 32.332L-81.124 32.276L-81.148 32.258L-81.148 32.224L-81.115 32.190L-81.119 32.117L-81.105 32.105L-80.895 32.006L-80.974 31.948L-80.971 31.890L-81.140 31.864L-81.180 31.906L-81.207 31.900L-81.197 31.920L-81.204 31.928L-81.240 31.903
			L-81.284 31.949L-81.245 31.894L-81.207 31.920L-81.220 31.893L-81.180 31.897L-81.142 31.853L-81.039 31.823L-81.061 31.777L-81.137 31.727L-81.174 31.800L-81.197 31.785L-81.175 31.736L-81.290 31.799L-81.135 31.646L-81.187 31.600L-81.241 31.640L-81.239 31.557L-81.195 31.505L-81.209 31.467L-81.313 31.337L-81.366 31.344L-81.411 31.311L-81.395 31.264L-81.389 31.297L-81.301 31.276
			L-81.310 31.242L-81.381 31.149L-81.529 31.131L-81.525 31.086L-81.476 31.044L-81.536 31.077L-81.491 30.986L-81.529 30.962L-81.485 30.945L-81.529 30.865L-81.499 30.757L-81.529 30.721L-81.537 30.706L-81.601 30.725L-81.605 30.716L-81.628 30.732L-81.643 30.729L-81.717 30.745L-81.737 30.764L-81.758 30.769L-81.777 30.761L-81.803 30.788L-81.873 30.799L-81.899 30.828L-81.908 30.813
			L-81.944 30.824L-81.953 30.820L-81.962 30.796L-81.982 30.778L-82.016 30.791L-82.013 30.764L-82.032 30.757L-82.045 30.651L-82.014 30.598L-82.006 30.571L-82.023 30.477L-82.035 30.443L-82.046 30.434L-82.039 30.379L-82.053 30.364L-82.165 30.361L-82.180 30.368L-82.206 30.424L-82.199 30.490L-82.220 30.503L-82.239 30.531L-82.221 30.567L-82.412 30.577L-82.463 30.582L-82.583 30.589
			L-82.697 30.596L-83.133 30.621L-83.301 30.633L-83.311 30.634L-83.609 30.651L-83.738 30.660L-84.001 30.675L-84.076 30.678L-84.282 30.690L-84.375 30.694L-84.863 30.712L-84.865 30.714L-84.888 30.744L-84.915 30.754L-84.927 30.776L-84.933 30.802L-84.927 30.847L-84.938 30.895L-84.969 30.927L-84.974 30.963L-85.000 30.979L-85.002 31.001L-85.017 31.080L-85.038 31.127L-85.069 31.162
			L-85.093 31.172L-85.103 31.197L-85.094 31.227L-85.103 31.271L-85.081 31.303L-85.083 31.332L-85.088 31.367L-85.061 31.440L-85.066 31.476L-85.043 31.519L-85.043 31.554L-85.059 31.621L-85.111 31.684L-85.119 31.708L-85.115 31.731z"/>
		<path d="M-81.485 30.904L-81.417 30.970L-81.403 30.939L-81.456 30.716L-81.480 30.737L-81.470 30.860L-81.503 30.882z"/>
		<path d="M-81.760 33.195L-81.770 33.214L-81.780 33.217L-81.802 33.208L-81.811 33.226L-81.854 33.243L-81.837 33.260L-81.840 33.273L-81.827 33.269L-81.861 33.297L-81.840 33.308L-81.866 33.316L-81.877 33.307L-81.894 33.335L-81.912 33.332L-81.912 33.349L-81.937 33.350L-81.945 33.377L-81.926 33.376L-81.940 33.408L-81.914 33.415L-81.927 33.436L-81.917 33.451L-81.937 33.471L-81.981 33.491
			L-81.997 33.520L-82.020 33.539L-82.039 33.547L-82.066 33.574L-82.117 33.595L-82.139 33.594L-82.167 33.615L-82.192 33.624L-82.214 33.681L-82.235 33.690L-82.266 33.761L-82.306 33.783L-82.311 33.804L-82.351 33.835L-82.366 33.836L-82.391 33.854L-82.425 33.860L-82.457 33.878L-82.518 33.931L-82.577 33.959L-82.574 33.969L-82.596 34.013L-82.603 34.035L-82.660 34.108L-82.736 34.170
			L-82.743 34.205L-82.758 34.233L-82.764 34.281L-82.783 34.290L-82.809 34.340L-82.837 34.371L-82.844 34.413L-82.868 34.457L-82.905 34.478L-82.982 34.476L-83.008 34.471L-83.055 34.490L-83.079 34.519L-83.108 34.535L-83.137 34.568L-83.159 34.577L-83.165 34.599L-83.237 34.613L-83.299 34.663L-83.340 34.678L-83.351 34.710L-83.350 34.727L-83.324 34.752L-83.323 34.787L-83.303 34.805
			L-83.270 34.815L-83.268 34.839L-83.251 34.840L-83.250 34.850L-83.236 34.862L-83.243 34.878L-83.233 34.874L-83.220 34.889L-83.204 34.884L-83.182 34.911L-83.158 34.918L-83.155 34.932L-83.138 34.930L-83.126 34.941L-83.113 34.936L-83.127 34.954L-83.122 34.961L-83.116 34.955L-83.101 34.984L-83.106 35.000L-83.007 35.024L-82.888 35.055L-82.771 35.085L-82.697 35.091L-82.688 35.098
			L-82.686 35.121L-82.654 35.119L-82.570 35.149L-82.525 35.155L-82.467 35.174L-82.438 35.170L-82.390 35.208L-82.371 35.183L-82.360 35.183L-82.351 35.193L-82.321 35.184L-82.278 35.195L-82.210 35.193L-81.971 35.188L-81.871 35.183L-81.765 35.182L-81.362 35.163L-81.323 35.164L-81.049 35.152L-81.049 35.132L-81.028 35.105L-81.066 35.066L-81.040 35.037L-80.928 35.101L-80.895 35.060
			L-80.840 35.002L-80.786 34.941L-80.800 34.816L-80.562 34.815L-80.325 34.815L-79.920 34.808L-79.686 34.805L-79.668 34.801L-79.456 34.634L-79.447 34.619L-79.075 34.305L-78.656 33.949L-78.580 33.882L-78.623 33.866L-78.586 33.853L-78.855 33.716L-79.001 33.572L-79.121 33.431L-79.150 33.317L-79.158 33.342L-79.271 33.297L-79.202 33.184L-79.230 33.141L-79.349 33.155L-79.298 33.139
			L-79.288 33.105L-79.411 33.014L-79.583 33.016L-79.617 32.981L-79.588 32.925L-79.607 32.899L-79.753 32.794L-79.908 32.791L-79.800 32.930L-79.907 32.859L-79.930 32.914L-79.962 32.904L-79.948 32.811L-79.892 32.734L-79.897 32.677L-79.997 32.606L-80.211 32.561L-80.291 32.504L-80.347 32.512L-80.391 32.655L-80.416 32.669L-80.400 32.505L-80.481 32.510L-80.551 32.558L-80.539 32.510
			L-80.647 32.519L-80.644 32.498L-80.486 32.431L-80.443 32.373L-80.461 32.318L-80.626 32.273L-80.678 32.285L-80.742 32.360L-80.800 32.473L-80.785 32.505L-80.831 32.516L-80.867 32.533L-80.822 32.401L-80.781 32.248L-80.893 32.068L-81.105 32.105L-81.119 32.117L-81.115 32.190L-81.148 32.224L-81.148 32.258L-81.124 32.276L-81.132 32.332L-81.142 32.348L-81.158 32.339L-81.179 32.372
			L-81.178 32.387L-81.200 32.420L-81.195 32.464L-81.236 32.520L-81.268 32.534L-81.274 32.555L-81.299 32.567L-81.341 32.571L-81.352 32.583L-81.367 32.582L-81.366 32.588L-81.385 32.596L-81.412 32.625L-81.400 32.651L-81.407 32.687L-81.421 32.701L-81.408 32.742L-81.423 32.750L-81.416 32.757L-81.430 32.786L-81.421 32.809L-81.430 32.820L-81.424 32.832L-81.433 32.842L-81.455 32.844
			L-81.459 32.871L-81.483 32.876L-81.465 32.898L-81.477 32.897L-81.510 32.947L-81.510 32.955L-81.498 32.960L-81.493 33.005L-81.509 33.013L-81.530 33.044L-81.548 33.044L-81.560 33.061L-81.596 33.071L-81.611 33.088L-81.704 33.123L-81.741 33.145L-81.764 33.170z"/>
		<path d="M-80.768 32.258L-80.719 32.272L-80.667 32.220L-80.819 32.104z"/>
		<path d="M-94.461 34.197L-94.452 34.508L-94.446 34.736L-94.439 34.929L-94.428 35.400L-94.468 35.641L-94.486 35.760L-94.542 36.107L-94.553 36.164L-94.607 36.479L-94.617 36.489L-94.081 36.491L-93.857 36.490L-93.596 36.490L-93.328 36.490L-93.297 36.491L-92.852 36.490L-92.777 36.490L-92.523 36.491L-92.146 36.492L-92.127 36.491L-91.688 36.491L-91.453 36.490L-91.412 36.491L-91.134 36.488
			L-90.804 36.489L-90.582 36.491L-90.224 36.493L-90.150 36.492L-90.137 36.457L-90.117 36.454L-90.124 36.423L-90.117 36.405L-90.080 36.397L-90.052 36.383L-90.050 36.363L-90.068 36.325L-90.050 36.300L-90.066 36.272L-90.110 36.258L-90.131 36.212L-90.161 36.197L-90.219 36.173L-90.232 36.161L-90.235 36.137L-90.264 36.119L-90.285 36.116L-90.315 36.092L-90.379 35.990L-90.283 35.991
			L-89.963 35.997L-89.722 36.000L-89.713 35.966L-89.664 35.938L-89.645 35.914L-89.649 35.894L-89.665 35.886L-89.715 35.911L-89.738 35.915L-89.763 35.897L-89.766 35.884L-89.758 35.871L-89.701 35.842L-89.701 35.828L-89.736 35.807L-89.760 35.817L-89.790 35.806L-89.800 35.774L-89.827 35.758L-89.860 35.748L-89.910 35.755L-89.951 35.734L-89.952 35.712L-89.930 35.676L-89.893 35.656
			L-89.865 35.673L-89.857 35.671L-89.849 35.645L-89.864 35.630L-89.877 35.633L-89.957 35.603L-89.958 35.579L-89.922 35.546L-89.931 35.529L-89.948 35.527L-89.962 35.532L-89.990 35.562L-90.033 35.552L-90.041 35.543L-90.042 35.512L-90.000 35.445L-90.047 35.417L-90.060 35.413L-90.074 35.427L-90.075 35.472L-90.082 35.478L-90.102 35.474L-90.137 35.443L-90.173 35.424L-90.168 35.384
			L-90.140 35.383L-90.132 35.408L-90.112 35.418L-90.085 35.418L-90.075 35.407L-90.087 35.382L-90.106 35.366L-90.099 35.346L-90.106 35.315L-90.157 35.306L-90.170 35.283L-90.152 35.264L-90.106 35.264L-90.090 35.254L-90.069 35.213L-90.073 35.192L-90.062 35.167L-90.065 35.147L-90.083 35.125L-90.144 35.137L-90.164 35.130L-90.178 35.109L-90.169 35.078L-90.196 35.041L-90.292 35.048
			L-90.305 35.001L-90.300 34.978L-90.248 34.950L-90.242 34.939L-90.243 34.921L-90.267 34.897L-90.296 34.883L-90.299 34.865L-90.302 34.852L-90.323 34.850L-90.341 34.861L-90.404 34.841L-90.422 34.832L-90.434 34.835L-90.428 34.873L-90.438 34.886L-90.471 34.881L-90.475 34.858L-90.452 34.825L-90.467 34.800L-90.449 34.761L-90.451 34.741L-90.486 34.727L-90.504 34.730L-90.517 34.748
			L-90.499 34.766L-90.501 34.790L-90.516 34.806L-90.527 34.807L-90.548 34.790L-90.533 34.713L-90.514 34.702L-90.470 34.704L-90.466 34.672L-90.509 34.638L-90.539 34.637L-90.548 34.652L-90.539 34.686L-90.561 34.700L-90.579 34.646L-90.588 34.628L-90.578 34.605L-90.531 34.556L-90.537 34.543L-90.566 34.533L-90.580 34.520L-90.590 34.497L-90.574 34.454L-90.579 34.433L-90.604 34.405
			L-90.657 34.366L-90.658 34.330L-90.679 34.318L-90.689 34.320L-90.681 34.363L-90.687 34.378L-90.755 34.372L-90.762 34.364L-90.748 34.318L-90.758 34.279L-90.793 34.300L-90.806 34.299L-90.824 34.277L-90.831 34.230L-90.863 34.219L-90.928 34.250L-90.934 34.235L-90.921 34.205L-90.823 34.191L-90.808 34.166L-90.829 34.149L-90.847 34.148L-90.929 34.186L-90.953 34.156L-90.942 34.126
			L-90.906 34.103L-90.866 34.101L-90.886 34.041L-90.950 34.031L-90.973 34.011L-90.975 33.995L-90.961 33.979L-90.965 33.967L-90.987 33.961L-91.000 33.968L-91.010 33.991L-91.031 33.986L-91.070 34.006L-91.089 33.994L-91.076 33.975L-91.018 33.936L-91.061 33.867L-91.055 33.844L-91.029 33.817L-90.990 33.799L-90.984 33.785L-90.995 33.772L-91.018 33.764L-91.043 33.770L-91.066 33.787
			L-91.105 33.776L-91.137 33.780L-91.143 33.772L-91.138 33.723L-91.129 33.712L-91.105 33.708L-91.056 33.719L-91.039 33.705L-91.038 33.683L-91.084 33.663L-91.121 33.678L-91.163 33.718L-91.212 33.709L-91.215 33.691L-91.205 33.670L-91.154 33.637L-91.151 33.616L-91.168 33.577L-91.188 33.575L-91.227 33.590L-91.228 33.556L-91.213 33.539L-91.204 33.539L-91.183 33.523L-91.180 33.512
			L-91.208 33.473L-91.227 33.459L-91.233 33.443L-91.182 33.447L-91.172 33.467L-91.174 33.504L-91.165 33.512L-91.129 33.493L-91.119 33.470L-91.120 33.453L-91.131 33.443L-91.199 33.422L-91.204 33.414L-91.185 33.392L-91.138 33.389L-91.099 33.415L-91.086 33.463L-91.074 33.466L-91.061 33.460L-91.062 33.432L-91.079 33.410L-91.107 33.393L-91.130 33.359L-91.142 33.322L-91.123 33.269
			L-91.103 33.249L-91.076 33.292L-91.054 33.294L-91.040 33.282L-91.055 33.246L-91.092 33.226L-91.086 33.162L-91.096 33.145L-91.121 33.131L-91.178 33.150L-91.196 33.140L-91.191 33.113L-91.147 33.091L-91.118 33.066L-91.124 33.047L-91.157 33.040L-91.161 33.022L-91.162 33.013L-91.255 33.013L-91.428 33.013L-91.454 33.014L-92.063 33.010L-92.717 33.017L-92.979 33.018L-93.232 33.019
			L-93.479 33.021L-93.512 33.021L-93.810 33.023L-94.039 33.023L-94.037 33.270L-94.036 33.556L-94.061 33.577L-94.087 33.584L-94.099 33.573L-94.155 33.567L-94.160 33.594L-94.205 33.585L-94.211 33.558L-94.235 33.562L-94.223 33.586L-94.237 33.592L-94.275 33.562L-94.272 33.585L-94.279 33.589L-94.299 33.580L-94.302 33.557L-94.329 33.573L-94.371 33.548L-94.395 33.560L-94.372 33.573
			L-94.371 33.590L-94.379 33.593L-94.393 33.575L-94.407 33.573L-94.428 33.597L-94.443 33.597L-94.452 33.604L-94.436 33.617L-94.436 33.636L-94.476 33.632L-94.468 33.939z"/>
		<path d="M-93.707 30.239L-93.699 30.297L-93.730 30.305L-93.759 30.341L-93.759 30.354L-93.748 30.367L-93.755 30.382L-93.743 30.409L-93.722 30.433L-93.697 30.443L-93.703 30.463L-93.698 30.470L-93.715 30.489L-93.707 30.496L-93.715 30.505L-93.705 30.523L-93.735 30.546L-93.718 30.568L-93.718 30.587L-93.693 30.599L-93.672 30.598L-93.693 30.616L-93.685 30.623L-93.693 30.640L-93.678 30.640
			L-93.660 30.673L-93.618 30.687L-93.612 30.710L-93.618 30.733L-93.608 30.732L-93.618 30.746L-93.585 30.772L-93.582 30.802L-93.551 30.828L-93.556 30.842L-93.566 30.845L-93.553 30.860L-93.561 30.872L-93.568 30.886L-93.564 30.902L-93.547 30.905L-93.550 30.925L-93.530 30.927L-93.526 30.936L-93.532 30.961L-93.537 30.957L-93.549 30.970L-93.572 30.976L-93.561 30.992L-93.571 30.997
			L-93.568 31.013L-93.565 31.018L-93.547 31.014L-93.507 31.039L-93.526 31.057L-93.517 31.075L-93.544 31.082L-93.543 31.095L-93.560 31.101L-93.557 31.109L-93.535 31.116L-93.528 31.126L-93.538 31.132L-93.544 31.159L-93.528 31.163L-93.537 31.176L-93.527 31.178L-93.529 31.186L-93.551 31.191L-93.577 31.172L-93.594 31.180L-93.603 31.199L-93.591 31.230L-93.611 31.242L-93.612 31.270
			L-93.616 31.276L-93.631 31.274L-93.646 31.290L-93.656 31.287L-93.682 31.313L-93.677 31.328L-93.635 31.374L-93.661 31.372L-93.664 31.398L-93.687 31.406L-93.694 31.416L-93.696 31.428L-93.687 31.438L-93.702 31.446L-93.698 31.461L-93.727 31.459L-93.751 31.486L-93.750 31.491L-93.719 31.495L-93.706 31.521L-93.732 31.522L-93.748 31.538L-93.763 31.531L-93.780 31.534L-93.811 31.559
			L-93.816 31.577L-93.833 31.590L-93.836 31.615L-93.820 31.618L-93.815 31.648L-93.806 31.654L-93.812 31.675L-93.792 31.711L-93.809 31.708L-93.815 31.712L-93.810 31.730L-93.831 31.753L-93.822 31.775L-93.834 31.802L-93.865 31.817L-93.877 31.850L-93.881 31.871L-93.893 31.870L-93.899 31.894L-93.923 31.893L-93.918 31.910L-93.936 31.909L-93.970 31.923L-93.977 31.946L-94.004 31.978
			L-94.010 31.989L-94.035 31.995L-94.035 32.199L-94.035 32.389L-94.040 32.695L-94.042 32.882L-94.039 33.023L-93.810 33.023L-93.512 33.021L-93.479 33.021L-93.232 33.019L-92.979 33.018L-92.717 33.017L-92.063 33.010L-91.454 33.014L-91.428 33.013L-91.255 33.013L-91.162 33.013L-91.162 33.000L-91.209 32.936L-91.198 32.914L-91.170 32.905L-91.137 32.918L-91.130 32.937L-91.132 32.975
			L-91.112 32.987L-91.093 32.988L-91.076 32.954L-91.080 32.877L-91.142 32.841L-91.156 32.763L-91.136 32.751L-91.098 32.749L-91.059 32.724L-91.140 32.663L-91.146 32.645L-91.111 32.598L-91.064 32.606L-91.048 32.614L-91.027 32.642L-91.008 32.643L-90.996 32.626L-90.999 32.615L-91.032 32.583L-91.059 32.576L-91.073 32.562L-91.063 32.542L-90.995 32.512L-90.992 32.495L-91.020 32.491
			L-91.037 32.497L-91.089 32.549L-91.119 32.524L-91.118 32.499L-91.059 32.447L-91.027 32.442L-90.987 32.453L-90.965 32.440L-90.970 32.419L-91.009 32.397L-90.999 32.366L-90.985 32.356L-90.915 32.346L-90.885 32.381L-90.875 32.380L-90.916 32.305L-90.929 32.297L-90.972 32.304L-90.981 32.298L-90.984 32.287L-90.971 32.269L-90.977 32.223L-91.042 32.249L-91.062 32.233L-91.088 32.232
			L-91.101 32.215L-91.116 32.226L-91.157 32.206L-91.167 32.172L-91.157 32.145L-91.109 32.135L-91.083 32.149L-91.054 32.134L-91.045 32.159L-91.054 32.185L-91.024 32.170L-91.004 32.169L-91.011 32.134L-91.041 32.108L-91.074 32.094L-91.065 32.059L-91.089 32.057L-91.126 32.088L-91.146 32.086L-91.143 32.066L-91.087 32.044L-91.073 32.032L-91.072 32.021L-91.108 31.992L-91.163 31.988
			L-91.201 31.914L-91.244 31.879L-91.265 31.865L-91.241 31.835L-91.251 31.819L-91.277 31.827L-91.293 31.861L-91.303 31.863L-91.335 31.843L-91.347 31.796L-91.367 31.771L-91.336 31.763L-91.263 31.774L-91.264 31.760L-91.283 31.750L-91.340 31.758L-91.370 31.753L-91.365 31.752L-91.388 31.717L-91.389 31.654L-91.408 31.625L-91.457 31.627L-91.498 31.651L-91.508 31.644L-91.509 31.622
			L-91.497 31.604L-91.415 31.602L-91.404 31.586L-91.423 31.563L-91.464 31.543L-91.503 31.535L-91.506 31.526L-91.508 31.453L-91.473 31.420L-91.466 31.404L-91.481 31.378L-91.495 31.375L-91.523 31.392L-91.534 31.409L-91.535 31.434L-91.552 31.433L-91.568 31.421L-91.559 31.388L-91.534 31.383L-91.544 31.369L-91.543 31.347L-91.506 31.323L-91.502 31.299L-91.517 31.283L-91.557 31.270
			L-91.634 31.278L-91.644 31.271L-91.637 31.241L-91.601 31.214L-91.591 31.178L-91.620 31.128L-91.565 31.082L-91.552 31.058L-91.573 31.032L-91.628 31.012L-91.632 31.001L-91.179 31.000L-91.057 31.000L-90.830 31.001L-90.560 31.002L-90.543 31.002L-90.344 31.005L-90.259 31.007L-89.833 31.007L-89.733 31.007L-89.724 31.001L-89.727 30.984L-89.720 30.975L-89.739 30.965L-89.748 30.950
			L-89.740 30.926L-89.758 30.921L-89.746 30.910L-89.747 30.903L-89.763 30.900L-89.766 30.862L-89.785 30.861L-89.775 30.830L-89.796 30.829L-89.796 30.812L-89.811 30.812L-89.825 30.790L-89.813 30.748L-89.825 30.742L-89.823 30.733L-89.836 30.729L-89.844 30.712L-89.831 30.704L-89.841 30.700L-89.842 30.679L-89.835 30.676L-89.845 30.666L-89.829 30.671L-89.819 30.651L-89.805 30.649
			L-89.820 30.624L-89.791 30.554L-89.773 30.551L-89.755 30.515L-89.732 30.498L-89.719 30.496L-89.713 30.481L-89.696 30.478L-89.695 30.468L-89.683 30.463L-89.675 30.445L-89.675 30.400L-89.655 30.379L-89.647 30.355L-89.633 30.355L-89.620 30.343L-89.619 30.324L-89.637 30.312L-89.639 30.296L-89.626 30.290L-89.622 30.257L-89.606 30.248L-89.610 30.241L-89.574 30.195L-89.729 30.181
			L-89.759 30.231L-89.943 30.270L-90.075 30.369L-90.240 30.381L-90.309 30.304L-90.424 30.186L-90.395 30.092L-90.276 30.062L-90.111 30.041L-89.990 30.053L-89.891 30.156L-89.798 30.105L-89.740 30.159L-89.725 30.121L-89.669 30.163L-89.649 30.122L-89.717 30.055L-89.849 30.010L-89.821 29.951L-89.715 29.969L-89.712 29.897L-89.627 29.875L-89.586 29.898L-89.574 30.009L-89.436 30.044
			L-89.454 29.986L-89.378 29.951L-89.431 29.940L-89.402 29.846L-89.421 29.828L-89.364 29.797L-89.417 29.783L-89.482 29.831L-89.540 29.755L-89.651 29.767L-89.593 29.711L-89.612 29.698L-89.512 29.664L-89.479 29.636L-89.598 29.665L-89.677 29.703L-89.695 29.694L-89.635 29.626L-89.728 29.646L-89.748 29.637L-89.723 29.606L-89.772 29.610L-89.545 29.471L-89.537 29.401L-89.384 29.398
			L-89.337 29.341L-89.265 29.350L-89.263 29.298L-89.193 29.349L-89.130 29.291L-89.120 29.212L-89.033 29.223L-89.098 29.163L-89.022 29.147L-89.058 29.085L-89.126 29.135L-89.111 29.083L-89.154 29.057L-89.144 29.016L-89.241 29.121L-89.257 29.059L-89.395 28.939L-89.263 29.148L-89.319 29.180L-89.340 29.104L-89.389 29.100L-89.393 29.146L-89.467 29.216L-89.459 29.256L-89.493 29.235
			L-89.620 29.279L-89.611 29.332L-89.795 29.322L-89.754 29.374L-89.822 29.421L-89.817 29.477L-89.967 29.472L-89.972 29.503L-90.007 29.494L-90.113 29.554L-90.137 29.534L-90.152 29.595L-90.208 29.545L-90.174 29.496L-90.036 29.447L-90.055 29.428L-90.030 29.374L-90.056 29.351L-90.033 29.309L-90.112 29.322L-90.078 29.214L-90.043 29.223L-90.078 29.176L-90.228 29.098L-90.264 29.184
			L-90.243 29.255L-90.279 29.275L-90.284 29.245L-90.348 29.313L-90.396 29.272L-90.407 29.326L-90.450 29.352L-90.476 29.304L-90.611 29.305L-90.583 29.261L-90.621 29.223L-90.650 29.254L-90.638 29.162L-90.684 29.182L-90.677 29.140L-90.783 29.127L-90.773 29.160L-90.839 29.182L-90.883 29.137L-90.920 29.182L-90.814 29.221L-90.818 29.257L-90.897 29.267L-90.936 29.343L-91.078 29.360
			L-91.102 29.314L-91.214 29.406L-91.263 29.489L-91.433 29.552L-91.548 29.531L-91.548 29.642L-91.643 29.644L-91.616 29.769L-91.863 29.726L-91.881 29.766L-91.847 29.808L-91.824 29.787L-91.827 29.839L-91.967 29.842L-91.973 29.806L-92.137 29.731L-92.130 29.773L-92.200 29.763L-92.060 29.607L-92.297 29.541L-92.607 29.588L-93.234 29.789L-93.722 29.759L-93.802 29.726L-93.900 29.810
			L-93.791 29.850L-93.760 30.006L-93.712 30.061L-93.716 30.096L-93.708 30.115L-93.697 30.118L-93.699 30.141L-93.686 30.141L-93.683 30.148L-93.700 30.151L-93.696 30.176L-93.704 30.181L-93.715 30.220z"/>
		<path d="M-92.016 29.596L-91.902 29.651L-91.770 29.578L-91.701 29.577L-91.765 29.534L-91.758 29.494L-91.849 29.487z"/>
		<path d="M-91.341 29.342L-91.300 29.316L-91.226 29.381L-91.189 29.297L-91.161 29.324L-91.171 29.283L-91.188 29.285L-91.200 29.308L-91.195 29.273L-91.152 29.266L-91.164 29.245L-91.135 29.260L-91.128 29.227L-91.276 29.254z"/>
		<path d="M-90.934 29.259L-90.971 29.242L-90.954 29.273L-90.981 29.276L-90.980 29.220L-90.945 29.226L-90.962 29.186L-91.003 29.184L-90.994 29.225L-91.044 29.211L-91.033 29.275L-91.068 29.253L-91.055 29.191L-91.122 29.227L-91.127 29.293L-91.007 29.297L-90.999 29.324z"/>
		<path d="M-80.786 28.785L-80.763 28.736L-80.832 28.786L-80.851 28.785L-80.747 28.399L-80.492 27.870L-80.510 27.825L-80.482 27.845L-80.402 27.703L-80.358 27.555L-80.240 27.264L-80.190 27.185L-80.224 27.215L-80.290 27.241L-80.327 27.248L-80.291 27.213L-80.222 27.203L-80.148 27.109L-80.091 26.974L-80.115 26.974L-80.051 26.797L-80.085 26.326L-80.128 25.977L-80.193 25.760L-80.302 25.613
			L-80.330 25.490L-80.302 25.401L-80.417 25.250L-80.421 25.192L-80.552 25.212L-80.694 25.152L-80.857 25.185L-80.976 25.130L-81.119 25.134L-81.148 25.164L-81.184 25.268L-81.141 25.320L-81.012 25.214L-80.951 25.202L-80.915 25.246L-80.974 25.322L-81.144 25.396L-81.259 25.681L-81.200 25.710L-81.256 25.803L-81.531 25.914L-81.718 25.923L-81.706 26.000L-81.795 26.111L-81.814 26.284
			L-81.850 26.332L-81.864 26.439L-81.942 26.467L-81.968 26.517L-81.929 26.535L-81.884 26.643L-81.774 26.710L-81.897 26.663L-81.945 26.550L-82.022 26.524L-82.084 26.715L-82.068 26.767L-82.052 26.866L-82.098 26.921L-81.992 26.963L-81.979 27.031L-81.993 27.031L-82.013 26.976L-82.153 26.937L-82.258 27.004L-82.282 27.024L-82.258 26.998L-82.177 26.913L-82.154 26.790L-82.290 26.850
			L-82.356 26.949L-82.398 26.998L-82.369 26.948L-82.344 26.903L-82.380 26.947L-82.507 27.237L-82.531 27.260L-82.515 27.210L-82.570 27.274L-82.533 27.331L-82.566 27.386L-82.686 27.474L-82.639 27.503L-82.666 27.493L-82.682 27.524L-82.488 27.478L-82.514 27.512L-82.427 27.523L-82.576 27.512L-82.639 27.536L-82.570 27.552L-82.554 27.582L-82.627 27.555L-82.540 27.608L-82.553 27.644
			L-82.405 27.791L-82.399 27.906L-82.461 27.940L-82.483 27.822L-82.511 27.831L-82.539 27.935L-82.646 28.029L-82.651 28.007L-82.699 28.046L-82.673 28.010L-82.701 27.975L-82.645 27.966L-82.726 27.940L-82.564 27.878L-82.624 27.848L-82.645 27.715L-82.679 27.705L-82.794 27.829L-82.728 27.717L-82.741 27.686L-82.844 27.850L-82.779 28.173L-82.674 28.428L-82.636 28.692L-82.682 28.808
			L-82.637 28.814L-82.637 28.884L-82.755 29.008L-82.802 29.155L-83.037 29.179L-83.074 29.265L-83.142 29.299L-83.109 29.328L-83.175 29.343L-83.234 29.434L-83.380 29.520L-83.405 29.669L-83.551 29.737L-83.654 29.911L-83.972 30.077L-84.075 30.100L-84.148 30.082L-84.233 30.108L-84.354 30.069L-84.361 29.977L-84.438 29.992L-84.433 29.959L-84.339 29.947L-84.347 29.910L-84.465 29.929
			L-84.858 29.747L-84.929 29.778L-84.988 29.720L-85.215 29.701L-85.365 29.683L-85.410 29.777L-85.414 29.863L-85.393 29.875L-85.403 29.794L-85.358 29.691L-85.307 29.701L-85.301 29.810L-85.385 29.924L-85.629 30.092L-85.569 30.098L-85.471 30.022L-85.415 30.031L-85.432 30.046L-85.383 30.024L-85.383 30.036L-85.396 30.058L-85.464 30.051L-85.530 30.131L-85.710 30.179L-85.666 30.251
			L-85.600 30.251L-85.570 30.311L-85.717 30.265L-85.753 30.297L-85.850 30.280L-85.830 30.233L-85.758 30.229L-85.726 30.129L-85.987 30.274L-86.388 30.387L-86.505 30.410L-86.388 30.406L-86.240 30.400L-86.242 30.428L-86.115 30.386L-86.123 30.426L-86.220 30.488L-86.388 30.462L-86.453 30.501L-86.610 30.423L-86.790 30.418L-87.193 30.355L-86.933 30.463L-87.014 30.514L-86.986 30.590
			L-87.020 30.587L-87.069 30.450L-87.125 30.564L-87.172 30.558L-87.160 30.465L-87.274 30.357L-87.424 30.323L-87.409 30.402L-87.347 30.431L-87.347 30.457L-87.419 30.482L-87.445 30.531L-87.422 30.556L-87.393 30.620L-87.399 30.668L-87.419 30.693L-87.460 30.706L-87.527 30.748L-87.542 30.786L-87.616 30.848L-87.626 30.877L-87.590 30.954L-87.599 31.002L-87.163 31.003L-86.779 30.998
			L-86.702 30.998L-86.384 30.991L-86.182 30.995L-86.032 30.993L-85.487 31.001L-85.485 31.001L-85.002 31.001L-85.000 30.979L-84.974 30.963L-84.969 30.927L-84.938 30.895L-84.927 30.847L-84.933 30.802L-84.927 30.776L-84.915 30.754L-84.888 30.744L-84.865 30.714L-84.863 30.712L-84.375 30.694L-84.282 30.690L-84.076 30.678L-84.001 30.675L-83.738 30.660L-83.609 30.651L-83.311 30.634
			L-83.301 30.633L-83.133 30.621L-82.697 30.596L-82.583 30.589L-82.463 30.582L-82.412 30.577L-82.221 30.567L-82.239 30.531L-82.220 30.503L-82.199 30.490L-82.206 30.424L-82.180 30.368L-82.165 30.361L-82.053 30.364L-82.039 30.379L-82.046 30.434L-82.035 30.443L-82.023 30.477L-82.006 30.571L-82.014 30.598L-82.045 30.651L-82.032 30.757L-82.013 30.764L-82.016 30.791L-81.982 30.778
			L-81.962 30.796L-81.953 30.820L-81.944 30.824L-81.908 30.813L-81.899 30.828L-81.873 30.799L-81.803 30.788L-81.777 30.761L-81.758 30.769L-81.737 30.764L-81.717 30.745L-81.643 30.729L-81.628 30.732L-81.605 30.716L-81.601 30.725L-81.537 30.706L-81.529 30.721L-81.499 30.598L-81.518 30.556L-81.458 30.455L-81.481 30.380L-81.443 30.357L-81.433 30.247L-81.303 29.913L-81.317 29.829
			L-81.244 29.738L-81.234 29.669L-81.110 29.430L-81.097 29.352z"/>
		<path d="M-86.834 30.400L-86.792 30.404L-86.621 30.414L-86.535 30.407L-86.523 30.401L-86.533 30.393L-86.739 30.402L-86.793 30.390L-86.835 30.387L-87.242 30.321L-87.267 30.321L-87.290 30.333L-87.286 30.340L-87.202 30.335L-87.139 30.352L-87.048 30.369L-86.929 30.381z"/>
		<path d="M-80.736 28.789L-80.764 28.822L-80.817 28.895L-80.891 29.013L-80.917 29.072L-80.899 29.061L-80.863 28.991z"/>
		<path d="M-80.726 28.784L-80.580 28.590L-80.526 28.463L-80.588 28.409L-80.622 28.412L-80.578 28.548L-80.599 28.604L-80.660 28.618L-80.692 28.588L-80.781 28.619L-80.786 28.687L-80.735 28.706L-80.754 28.737L-80.641 28.657z"/>
		<path d="M-80.689 28.581L-80.654 28.601L-80.609 28.573L-80.663 28.427L-80.667 28.302L-80.606 28.145L-80.721 28.385z"/>
		<path d="M-82.102 26.586L-82.067 26.497L-82.098 26.494L-82.136 26.642L-82.183 26.683L-82.129 26.693z"/>
		<path d="M-80.250 25.355L-80.356 25.158L-80.588 24.956L-80.353 25.211L-80.331 25.268L-80.362 25.296z"/>

		<!-- Caribbean -->
		<path d="M-81.974 22.383L-81.837 22.402L-81.459 22.524L-81.536 22.638L-81.676 22.689L-81.842 22.714L-82.135 22.707L-82.359 22.725L-82.649 22.655L-83.186 22.240L-83.353 22.227L-83.647 22.227L-83.742 22.176L-83.827 21.972L-84.005 21.845L-84.149 21.825L-84.503 21.787L-84.386 21.933L-84.174 22.073L-84.231 22.340L-84.104 22.512L-84.053 22.556L-83.487 22.831L-82.756 23.042L-82.232 23.082
			L-81.853 23.152L-81.482 23.134L-81.227 23.154L-80.899 23.078L-80.518 23.041L-80.246 22.952L-79.995 22.902L-79.781 22.896L-79.556 22.776L-79.299 22.535L-79.127 22.421L-78.865 22.345L-78.520 22.295L-77.967 22.137L-77.508 21.916L-77.304 21.776L-77.136 21.529L-76.988 21.465L-76.772 21.447L-76.005 21.213L-75.547 21.138L-75.400 21.030L-75.555 20.769L-75.450 20.700L-75.198 20.681
			L-74.858 20.713L-74.635 20.638L-74.407 20.467L-74.141 20.340L-73.970 20.207L-74.074 20.169L-74.516 20.129L-75.034 19.950L-75.315 19.924L-75.790 20.019L-76.195 20.037L-76.615 19.953L-77.039 19.902L-77.257 19.888L-77.459 19.920L-77.300 20.092L-76.973 20.372L-76.895 20.550L-77.006 20.664L-77.088 20.721L-77.368 20.784L-77.683 20.784L-77.954 20.834L-78.247 20.986L-78.310 21.323
			L-78.426 21.564L-78.524 21.634L-78.702 21.646L-79.154 21.626L-79.531 21.689L-79.810 21.790L-80.241 22.012L-80.573 22.119L-80.850 22.150L-81.369 22.181L-81.589 22.225z"/>
		<path d="M-71.573 19.788L-71.566 19.554L-71.522 19.007L-71.516 18.912L-71.687 18.707L-71.692 18.631L-71.473 18.019L-71.775 18.279L-71.975 18.304L-72.317 18.240L-72.712 18.245L-73.012 18.308L-73.270 18.333L-73.483 18.288L-73.653 18.129L-73.714 18.148L-74.161 18.395L-74.238 18.541L-74.220 18.630L-74.100 18.713L-73.627 18.669L-73.343 18.619L-72.837 18.544L-72.542 18.525L-72.268 18.609
			L-72.094 18.679L-72.183 18.749L-72.495 18.958L-72.556 19.091L-72.473 19.409L-72.563 19.542L-72.741 19.612L-73.152 19.675L-73.289 19.770L-73.271 19.852L-73.217 19.891L-73.063 19.935L-72.737 19.962L-72.385 19.905L-71.899 19.773L-71.640 19.748z"/>
		<path d="M-71.473 18.019L-71.692 18.631L-71.687 18.707L-71.516 18.912L-71.522 19.007L-71.566 19.554L-71.573 19.788L-71.347 19.914L-71.170 19.851L-71.017 19.851L-70.844 19.927L-70.678 19.947L-70.615 19.858L-70.535 19.807L-70.086 19.668L-69.790 19.701L-69.694 19.523L-69.543 19.371L-69.305 19.225L-69.155 19.187L-68.865 19.093L-68.453 18.890L-68.273 18.732L-68.169 18.592L-68.255 18.516
			L-68.320 18.382L-68.461 18.216L-68.568 18.261L-68.782 18.527L-68.952 18.546L-69.307 18.520L-69.436 18.564L-69.604 18.564L-69.752 18.519L-70.096 18.276L-70.274 18.301L-70.417 18.524L-70.492 18.536L-70.562 18.511L-70.858 18.364L-71.013 18.014L-71.197 17.721L-71.327 17.772z"/>
		<path d="M-66.702 17.953L-66.948 18.003L-66.981 18.099L-66.958 18.347L-67.007 18.455L-66.957 18.531L-66.852 18.563L-66.607 18.532L-66.425 18.539L-65.748 18.489L-65.571 18.413L-65.520 18.350L-65.605 18.191L-65.636 18.146L-65.764 18.044L-65.915 18.025L-66.247 18.062L-66.543 18.030z"/>
		<path d="M-77.087 17.823L-77.222 17.848L-77.534 17.949L-77.637 18.070L-77.848 18.234L-78.057 18.272L-78.121 18.367L-77.883 18.495L-77.566 18.527L-76.952 18.414L-76.515 18.256L-76.223 18.136L-76.097 18.009L-76.115 17.920L-76.264 17.888L-76.602 18.021L-76.847 17.995L-76.949 17.880z"/>

		<defs>
			<radialGradient id="HurrGradient">
				<stop offset="0" stop-color="white" stop-opacity="0" />
				<stop id="HurrStop1" offset="0.03" stop-color="white" stop-opacity="0.9" />
				<stop id="HurrStop2" offset="0.25" stop-color="white" stop-opacity="0.6" />
				<stop offset="1" stop-color="white" stop-opacity="0.1" />
			</radialGradient>

			<g id="hurricane">
				<ellipse  cx="0" cy="0" rx="0.4" ry="0.6" fill="url(#HurrGradient)" stroke="none" >
					<animateTransform attributeName="transform" type="rotate" dur="2s" repeatDur="indefinite" from="0" to="360" />
					<animate attributeName="rx" dur="23s" fill="freeze" values="0.40;0.60;0.60;0.80;0.80;1.00;1.20;1.20;1.20;1.20;1.20;1.20;1.20;1.00;1.00;1.00;1.00;1.20;1.20;1.40;1.40;1.60;1.80;2.20;2.60;3.00;3.60;4.20;4.80;4.40;4.20;3.80;4.00;4.00;4.00;4.00;4.20;4.20;4.00;2.60;1.40;0.80;0.60;0.60;0.40;0.20;0.20;0" />
					<animate attributeName="ry" dur="23s" fill="freeze" values="0.60;0.80;0.80;1.00;1.00;1.20;1.40;1.40;1.40;1.40;1.40;1.40;1.40;1.20;1.20;1.20;1.20;1.40;1.40;1.60;1.60;1.80;2.00;2.40;2.80;3.20;3.80;4.40;5.00;4.60;4.40;4.00;4.20;4.20;4.20;4.20;4.40;4.40;4.20;2.80;1.60;1.00;0.80;0.80;0.60;0.40;0.40;0" />
					<animate xlink:href="#HurrStop1" attributeName="stop-opacity" dur="23s" fill="freeze" values="0.30;0.31;0.32;0.33;0.35;0.36;0.37;0.38;0.38;0.37;0.36;0.34;0.32;0.29;0.28;0.26;0.27;0.27;0.30;0.32;0.34;0.38;0.42;0.52;0.61;0.67;0.77;0.88;0.96;0.90;0.85;0.74;0.77;0.80;0.76;0.78;0.82;0.85;0.71;0.58;0.44;0.41;0.40;0.39;0.38;0.38;0.38" />
					<animate xlink:href="#HurrStop2" attributeName="stop-opacity" dur="23s" fill="freeze" values="0.20;0.21;0.21;0.22;0.24;0.24;0.25;0.25;0.25;0.25;0.24;0.23;0.22;0.20;0.19;0.18;0.18;0.18;0.20;0.22;0.23;0.25;0.28;0.34;0.41;0.45;0.52;0.58;0.64;0.60;0.56;0.50;0.52;0.54;0.51;0.52;0.55;0.56;0.48;0.39;0.30;0.28;0.27;0.26;0.26;0.25;0.25" />
				</ellipse>
			</g>
		</defs>
		<use  xlink:href="#hurricane" x="-60" y="10" >
			<animate attributeName="y" dur="23s" fill="freeze" values="10.80;11.20;11.70;12.30;13.10;13.60;14.10;14.60;15.40;16.30;17.20;18.00;18.80;19.80;20.70;21.70;22.50;23.20;23.90;24.40;24.80;25.30;25.60;25.80;25.70;25.60;25.50;25.40;25.40;25.40;25.40;25.60;25.80;26.20;26.60;27.20;27.80;28.50;29.20;30.10;30.90;31.50;32.10;32.80;33.60;34.40;35.40" />
			<animate attributeName="x" dur="23s" fill="freeze" values="-35.50;-37.40;-39.60;-42.00;-44.20;-46.20;-48.00;-49.90;-51.80;-53.50;-55.30;-56.90;-58.30;-59.30;-60.00;-60.70;-61.50;-62.40;-63.30;-64.20;-64.90;-65.90;-67.00;-68.30;-69.70;-71.10;-72.50;-74.20;-75.80;-77.50;-79.30;-81.20;-83.10;-85.00;-86.70;-88.20;-89.60;-90.50;-91.30;-91.70;-91.60;-91.10;-90.50;-89.60;-88.40;-86.70;-84.00" />
		</use>

		<g id="HurricanePath1" stroke-width="0.2" display="none" stroke-linejoin="round" stroke-opacity="0.5" >
			<path style="fill:none;stroke:blue" d="M-35.50 10.80L-37.40 11.20L-39.60 11.70L-42.00 12.30" />
			<path style="fill:none;stroke:green" d="M-42.00 12.30L-44.20 13.10L-46.20 13.60L-48.00 14.10L-49.90 14.60L-51.80 15.40L-53.50 16.30L-55.30 17.20L-56.90 18.00L-58.30 18.80L-59.30 19.80L-60.00 20.70L-60.70 21.70L-61.50 22.50L-62.40 23.20L-63.30 23.90L-64.20 24.40L-64.90 24.80L-65.90 25.30L-67.00 25.60L-68.30 25.80" />
			<path style="fill:none;stroke:cyan" d="M-68.30 25.80L-69.70 25.70L-71.10 25.60" />
			<path style="fill:none;stroke:yellow" d="M-71.10 25.60L-72.50 25.50" />
			<path style="fill:none;stroke:orange" d="M-72.50 25.50L-74.20 25.40" />
			<path style="fill:none;stroke:red" d="M-74.20 25.40L-75.80 25.40L-77.50 25.40L-79.30 25.40L-81.20 25.60" />
			<path style="fill:none;stroke:orange" d="M-81.20 25.60L-83.10 25.80" />
			<path style="fill:none;stroke:red" d="M-83.10 25.80L-85.00 26.20L-86.70 26.60L-88.20 27.20L-89.60 27.80L-90.50 28.50L-91.30 29.20L-91.70 30.10" />
			<path style="fill:none;stroke:cyan" d="M-91.70 30.10L-91.60 30.90" />
			<path style="fill:none;stroke:green" d="M-91.60 30.90L-91.10 31.50L-90.50 32.10" />
			<path style="fill:none;stroke:blue;" d="M-90.50 32.10L-89.60 32.80L-88.40 33.60L-86.70 34.40L-84.00 35.40" />
			<set attributeName="display" begin="23s" to="inline" />
		</g>

		<text transform="matrix(2.5 0 0 -1 -65 29)" fill="white" stroke="none" font-family="'NewBaskerville-Italic'" font-size="0.5">Atlantic Ocean</text>
		<text transform="matrix(2.5 0 0 -1 -91 26)" fill="white" stroke="none" font-family="'NewBaskerville-Italic'" font-size="0.4">Gulf of Mexico</text>
		<text transform="matrix(1 0 0 -1 -83.5 32.7)" fill="black" stroke="none" font-family="Times-Roman" font-size="0.5">GA</text>
		<text transform="matrix(1 0 0 -1 -86.7 32.3)" fill="black" stroke="none" font-family="Times-Roman" font-size="0.5">AL</text>
		<text transform="matrix(1 0 0 -1 -80.8 33.9)" fill="black" stroke="none" font-family="Times-Roman" font-size="0.5">SC</text>
		<text transform="matrix(1 0 0 -1 -79 35.6)" fill="black" stroke="none" font-family="Times-Roman" font-size="0.5">NC</text>
		<text transform="matrix(1 0 0 -1 -89.8 33.0)" fill="black" stroke="none" font-family="Times-Roman" font-size="0.5">MS</text>
		<text transform="matrix(1 0 0 -1 -92.8 31.8)" fill="black" stroke="none" font-family="Times-Roman" font-size="0.5">LA</text>
		<text transform="matrix(1 0 0 -1 -82 27.7)" fill="black" stroke="none" font-family="Times-Roman" font-size="0.5">FL</text>
		<text transform="matrix(1 0 0 -1 -80 25)" fill="black" stroke="none" font-family="Arial" font-size="0.5">Miami</text>

		<g font-family="Arial" font-size="0.5" fill="white" stroke="none" text-anchor="end" >
			<text id="SaffirCaption" font-family="Arial-Bold" font-size="0.65" transform="matrix(1 0 0 -1 -91 19.75)" text-anchor="start">Saffir-Simpson Scale</text>
			<text transform="matrix(1 0 0 -1 -87.5 18.85)" >Tropical Depression</text>
			<text transform="matrix(1 0 0 -1 -87.5 17.85)" >Tropical Storm</text>
			<text transform="matrix(1 0 0 -1 -87.5 16.85)" >Category 1</text>
			<text transform="matrix(1 0 0 -1 -87.5 15.85)" >Category 2</text>
			<text transform="matrix(1 0 0 -1 -87.5 14.85)" >Category 3</text>
			<text transform="matrix(1 0 0 -1 -87.5 13.85)" >Category 4</text>
			<text transform="matrix(1 0 0 -1 -87.5 12.85)" >Category 5</text>
		</g>

		<g id="HurricanePath" stroke-width="0.1">
			<path style="fill:none;stroke:blue;" d="M-87 19L-84 19" />
			<path style="fill:none;stroke:green"     d="M-87 18L-84 18"/>
			<path style="fill:none;stroke:cyan" d="M-87 17L-84 17" />
			<path style="fill:none;stroke:yellow" d="M-87 16L-84 16" />
			<path style="fill:none;stroke:orange" d="M-87 15L-84 15" />
			<path style="fill:none;stroke:red" d="M-87 14L-84 14" />
			<path style="fill:none;stroke:magenta" d="M-87 13L-84 13" />
		</g>

		<text id="CreateCaption" transform="matrix(1.5 0 0 -1 -75 12.5)" fill="gold" stroke="none" font-family="'NewBaskerville-Italic'" font-size="0.4">Created by R. K. Wright, Adobe Systems, 2001</text>
	</g>

	<text id="Title" transform="matrix(1 0 0 1 0 33.2402)" x="500" y="30" font-family="'BookAntiqua-Bold'" font-size="48" fill="gold" filter="url(#Emboss)" >Hurricane Andrew</text>
	<text transform="matrix(1 0 0 1 0 33.2402)" x="600" y="70" font-family="'BookAntiqua-Bold'" font-size="24" fill="gold" filter="url(#Emboss)" >16-28 August 1992</text>

	<defs>
	<text id="WindTextNA">n/a</text>
	<text id="WindText0">25</text>
	<text id="WindText1">30</text>
	<text id="WindText2">30</text>
	<text id="WindText3">35</text>
	<text id="WindText4">35</text>
	<text id="WindText5">40</text>
	<text id="WindText6">45</text>
	<text id="WindText7">45</text>
	<text id="WindText8">45</text>
	<text id="WindText9">45</text>
	<text id="WindText10">45</text>
	<text id="WindText11">45</text>
	<text id="WindText12">45</text>
	<text id="WindText13">40</text>
	<text id="WindText14">40</text>
	<text id="WindText15">40</text>
	<text id="WindText16">40</text>
	<text id="WindText17">45</text>
	<text id="WindText18">45</text>
	<text id="WindText19">50</text>
	<text id="WindText20">50</text>
	<text id="WindText21">55</text>
	<text id="WindText22">60</text>
	<text id="WindText23">70</text>
	<text id="WindText24">80</text>
	<text id="WindText25">90</text>
	<text id="WindText26">105</text>
	<text id="WindText27">120</text>
	<text id="WindText28">135</text>
	<text id="WindText29">125</text>
	<text id="WindText30">120</text>
	<text id="WindText31">110</text>
	<text id="WindText32">115</text>
	<text id="WindText33">115</text>
	<text id="WindText34">115</text>
	<text id="WindText35">115</text>
	<text id="WindText36">120</text>
	<text id="WindText37">120</text>
	<text id="WindText38">115</text>
	<text id="WindText39">80</text>
	<text id="WindText40">50</text>
	<text id="WindText41">35</text>
	<text id="WindText42">30</text>
	<text id="WindText43">30</text>
	<text id="WindText44">25</text>
	<text id="WindText45">20</text>
	<text id="WindText46">20</text>	
	</defs>

	<defs>
	<text id="PressTextNA">n/a</text>
	<text id="PressText0">1010</text>
	<text id="PressText1">1009</text>
	<text id="PressText2">1008</text>
	<text id="PressText3">1006</text>
	<text id="PressText4">1003</text>
	<text id="PressText5">1002</text>
	<text id="PressText6">1001</text>
	<text id="PressText7">1000</text>
	<text id="PressText8">1000</text>
	<text id="PressText9">1001</text>
	<text id="PressText10">1002</text>
	<text id="PressText11">1005</text>
	<text id="PressText12">1007</text>
	<text id="PressText13">1011</text>
	<text id="PressText14">1013</text>
	<text id="PressText15">1015</text>
	<text id="PressText16">1014</text>
	<text id="PressText17">1014</text>
	<text id="PressText18">1010</text>
	<text id="PressText19">1007</text>
	<text id="PressText20">1004</text>
	<text id="PressText21">1000</text>
	<text id="PressText22">994</text>
	<text id="PressText23">981</text>
	<text id="PressText24">969</text>
	<text id="PressText25">961</text>
	<text id="PressText26">947</text>
	<text id="PressText27">933</text>
	<text id="PressText28">922</text>
	<text id="PressText29">930</text>
	<text id="PressText30">937</text>
	<text id="PressText31">951</text>
	<text id="PressText32">947</text>
	<text id="PressText33">943</text>
	<text id="PressText34">948</text>
	<text id="PressText35">946</text>
	<text id="PressText36">941</text>
	<text id="PressText37">937</text>
	<text id="PressText38">955</text>
	<text id="PressText39">973</text>
	<text id="PressText40">991</text>
	<text id="PressText41">995</text>
	<text id="PressText42">997</text>
	<text id="PressText43">998</text>
	<text id="PressText44">999</text>
	<text id="PressText45">1000</text>
	<text id="PressText46">1000</text>
</defs>
	<g font-family="Arial" font-size="14" fill="white" >

		<text x="875" y="325" >Windspeed (mph):</text>
		<use xlink:href="#WindTextNA" x="1000" y="325" >
			<animate attributeName="xlink:href" dur="23s" values="#WindText0;#WindText1;#WindText2;#WindText3;#WindText4;#WindText5;#WindText6;#WindText7;#WindText8;#WindText9;#WindText10;#WindText11;#WindText12;#WindText13;#WindText14;#WindText15;#WindText16;#WindText17;#WindText18;#WindText19;#WindText20;#WindText21;#WindText22;#WindText23;#WindText24;#WindText25;#WindText26;#WindText27;#WindText28;#WindText29;#WindText30;#WindText31;#WindText32;#WindText33;#WindText34;#WindText35;#WindText36;#WindText37;#WindText38;#WindText39;#WindText40;#WindText41;#WindText42;#WindText43;#WindText44;#WindText45;#WindText46" />
		</use>

		<text x="875" y="350" >Pressure (mb):</text>
		<use xlink:href="#PressTextNA" x="1000" y="350" >
			<animate attributeName="xlink:href" dur="23s" values="#PressText0;#PressText1;#PressText2;#PressText3;#PressText4;#PressText5;#PressText6;#PressText7;#PressText8;#PressText9;#PressText10;#PressText11;#PressText12;#PressText13;#PressText14;#PressText15;#PressText16;#PressText17;#PressText18;#PressText19;#PressText20;#PressText21;#PressText22;#PressText23;#PressText24;#PressText25;#PressText26;#PressText27;#PressText28;#PressText29;#PressText30;#PressText31;#PressText32;#PressText33;#PressText34;#PressText35;#PressText36;#PressText37;#PressText38;#PressText39;#PressText40;#PressText41;#PressText42;#PressText43;#PressText44;#PressText45;#PressText46" />
		</use>
	</g>

	<filter id="Shadow" >
		<feGaussianBlur in="SourceAlpha" stdDeviation="10" result="blur"/>
		<feOffset in="blur" dx="3" dy="3" result="offsetBlur"/>
		<feComposite in2="SourceAlpha" in="offsetBlur" operator="out" result="offsetBlur"/>
		<feMerge>
			<feMergeNode in="offsetBlur"/>
			<feMergeNode in="SourceGraphic"/>
		</feMerge>
	</filter>

	<g id="SaffirInfo" transform="matrix(1 0 0 1 75 325)" display="none" pointer-events="none" font-family="'Verdana'" font-size="12">
		<rect fill="#FFFDE5" filter="url(#Shadow)"  fill-opacity="0.90" width="280" height="260"/>
		<text transform="matrix(1 0 0 1  15 20)" ><tspan x="0" y="0" font-family="'Verdana'" font-size="12">The Saffir Simpson scale is a widely used </tspan><tspan x="0" y="14.5" font-family="'Verdana'" font-size="12">method for categorizing the overall </tspan><tspan x="0" y="29" font-family="'Verdana'" font-size="12">intensity of a hurricane. </tspan><tspan x="0" y="43.5" font-family="'Verdana'" font-size="12">The scale is a 1-5 rating based on the </tspan><tspan x="0" y="58" font-family="'Verdana'" font-size="12">hurricane&apos;s present intensity. This is used </tspan><tspan x="0" y="72.5" font-family="'Verdana'" font-size="12">to give an estimate of the potential </tspan><tspan x="0" y="87" font-family="'Verdana'" font-size="12">property damage and flooding expected </tspan><tspan x="0" y="101.5" font-family="'Verdana'" font-size="12">along the coast from a hurricane landfall. </tspan><tspan x="0" y="116" font-family="'Verdana'" font-size="12">Storms with speeds less than 75 mph </tspan><tspan x="0" y="130.5" font-family="'Verdana'" font-size="12">are tropical s</tspan><tspan x="78.82" y="130.5" font-family="'Verdana'" font-size="12">torms or depressions. </tspan><tspan x="0" y="145" font-family="'Verdana'" font-size="12">Hurricanes are rated from 1, the </tspan><tspan x="0" y="159.5" font-family="'Verdana'" font-size="12">weakest, to 5, the most powerful.  Only </tspan><tspan x="0" y="174" font-family="'Verdana'" font-size="12">four storms in the past 100 years Mitch, </tspan><tspan x="0" y="188.5" font-family="'Verdana'" font-size="12">Gilbert, Camille and the Great Storm of </tspan><tspan x="0" y="203" font-family="'Verdana'" font-size="12">1938 (which devastated New England) </tspan><tspan x="0" y="217.5" font-family="'Verdana'" font-size="12">are the only cat 5 storms of the past 75 </tspan><tspan x="0" y="232" font-family="'Verdana'" font-size="12">years in North America.</tspan></text>

		<set xlink:href="#SaffirInfo" attributeName="display" begin="SaffirCaption.mouseover" to="inline" />
		<set xlink:href="#SaffirInfo" attributeName="display" begin="SaffirCaption.mouseout" to="none" />
	</g>

	<g id="CreateInfo" transform="matrix(1 0 0 1 375 250)" display="none" pointer-events="none" font-family="'Verdana'" font-size="12">
		<rect fill="#FFFDE5" filter="url(#Shadow)"  fill-opacity="0.90" width="450" height="285"/>
		<text id="XMLID_6_" transform="matrix(1 0 0 1 15 20)">
			<tspan x="0" y="0" >How was this file created? It was created using a combination of </tspan>
			<tspan x="0" y="14.5">some custom GIS tools for map-data extraction, a custom parser </tspan>
			<tspan x="0" y="29">for the hurricane</tspan>
			<tspan x="101.455" y="29" > data, Adobe Illustrator and hand-editing.</tspan>
			<tspan x="0" y="46.5">The custom GIS tools were needed to convert the GIS-format </tspan>
			<tspan x="0" y="61">vector data to SVG.</tspan>
			<tspan x="0" y="78.5">The custom parser was needed since the data was a simple ASCII </tspan>
			<tspan x="0" y="93">table with headers, etc.  Ideally, in the future, we will be able to get </tspan>
			<tspan x="0" y="107.5">this sort of data in XML and process it through XSLT.</tspan>
			<tspan x="0" y="125">Illustrator was used for some parts, such as the text.  </tspan>
			<tspan x="330.322" y="125">Why wasn&apos;t </tspan>
			<tspan x="0" y="139.5">Illustrator used for all the rest and avoid hand-editing? Because, for </tspan>
			<tspan x="0" y="154">all its power and sophistication, AI is not well-suited for building </tspan>
			<tspan x="0" y="168.5">complex SVG animations.  Almost always, one wants to use </tspan>
			<tspan x="0" y="183">different coordinate systems and multiple transformations.  AI does </tspan>
			<tspan x="0" y="197.5">not natively support this type of approach.</tspan>
			<tspan x="0" y="215">Ideally, what is needed is a tool that allows one to natively edit </tspan>
			<tspan x="0" y="229.5">SVG, perform transforms using XSLT and XPath and does not </tspan>
			<tspan x="0" y="244">flatten the artwork at all. </tspan>
		</text>
		<set xlink:href="#CreateInfo" attributeName="display" begin="CreateCaption.mouseover" to="inline" />
		<set xlink:href="#CreateInfo" attributeName="display" begin="CreateCaption.mouseout" to="none" />
	</g>

	<g id="TitleInfo" transform="matrix(1 0 0 1 375 50)" display="none" pointer-events="none" font-family="'Verdana'" font-size="12">
		<rect fill="#FFFDE5" filter="url(#Shadow)"  fill-opacity="0.90" width="380" height="285"/>

		<text transform="matrix(1 0 0 1 15 20)">
			<tspan x="0" y="0">Andrew was a small but ferocious hurricane that wrought </tspan>
			<tspan x="0" y="14.5">unprecedented economic devastation along a path </tspan>
			<tspan x="0" y="29">through the northwestern Bahamas, the southern Florida </tspan>
			<tspan x="0" y="43.5">peninsula, and south-central Louisiana. Damage in the </tspan>
			<tspan x="0" y="58">United States is estimated to be near 25 billion, making </tspan>
			<tspan x="0" y="72.5">Andrew the most expensive natural disaster in U.S. </tspan>
			<tspan x="0" y="87">history. The tropical cyclone struck southern Dade County, </tspan>
			<tspan x="0" y="101.5">Florida, especially hard, with violent winds and storm </tspan>
			<tspan x="0" y="116">surges characteristic of a category 4 hurricane on the </tspan>
			<tspan x="0" y="130.5">Saffir/Simpson  Scale, and with a central pressure (922 </tspan>
			<tspan x="0" y="145">mb) that is the third lowest this century for a hurricane at </tspan>
			<tspan x="0" y="159.5">landfall in the United States. In Dade County alone, the </tspan>
			<tspan x="0" y="174">forces of Andrew resulted in 15 deaths and up to one-</tspan>
			<tspan x="0" y="188.5">quarter million people left temporarily homeless. An </tspan>
			<tspan x="0" y="203">additional 25 lives were lost in Dade County from the </tspan>
			<tspan x="0" y="217.5">indirect effects of Andrew. The direct loss of life seems </tspan>
			<tspan x="0" y="232">remarkably low considering the destruction caused by this </tspan>
			<tspan x="0" y="246.5">hurricane.</tspan>
		</text>

		<set xlink:href="#TitleInfo" attributeName="display" begin="Title.mouseover" to="inline" />
		<set xlink:href="#TitleInfo" attributeName="display" begin="Title.mouseout" to="none" />
	</g>
    </g>
</svg>