<?xml version="1.0" encoding="utf-8"?>
<!-- Generator: Adobe Illustrator 18.1.1, SVG Export Plug-In . SVG Version: 6.00 Build 0)  -->
<svg version="1.1" id="OpenGL-Square" xmlns="http://www.w3.org/2000/svg" xmlns:xlink="http://www.w3.org/1999/xlink" x="0px"
	 y="0px" viewBox="0 0 248.2305 258.8325" enable-background="new 0 0 248.2305 258.8325" xml:space="preserve">
<rect x="13.0144" y="19.6698" fill="#FFFFFF" stroke="#000000" stroke-width="2" stroke-miterlimit="10" width="222.4359" height="222.4359"/>
<text transform="matrix(1 0 0 1 -5.054474e-05 254.3329)" font-family="'MyriadPro-Regular'" font-size="18">0</text>
<text transform="matrix(1 0 0 1 238.9966 252.7066)" font-family="'MyriadPro-Regular'" font-size="18">1</text>
<text transform="matrix(1 0 0 1 238.9969 15.066)" font-family="'MyriadPro-Regular'" font-size="18">2</text>
<line fill="none" stroke="#000000" stroke-width="2" stroke-miterlimit="10" x1="235.4502" y1="19.6698" x2="13.0143" y2="242.1057"/>
<g>
	<g>
		<line fill="none" stroke="#000000" stroke-miterlimit="10" x1="146.2451" y1="27.5288" x2="107.2451" y2="27.5288"/>
		<g>
			<path d="M101.2451,27.5288c2.8398-1.0537,6.3633-2.8516,8.5474-4.7559l-1.7202,4.7559l1.7202,4.7549
				C107.6084,30.3794,104.0849,28.5815,101.2451,27.5288z"/>
		</g>
	</g>
</g>
<g>
	<g>
		<line fill="none" stroke="#000000" stroke-miterlimit="10" x1="226.7451" y1="154.0288" x2="226.7451" y2="115.0288"/>
		<g>
			<path d="M226.7451,109.0288c1.0537,2.8398,2.8516,6.3633,4.7559,8.5474l-4.7559-1.7202l-4.7549,1.7202
				C223.8945,115.3921,225.6924,111.8686,226.7451,109.0288z"/>
		</g>
	</g>
</g>
<g>
	<g>
		<line fill="none" stroke="#000000" stroke-miterlimit="10" x1="149.655" y1="125.6189" x2="122.1027" y2="153.1712"/>
		<g>
			<path d="M117.8352,157.4387c1.263-2.7531,2.4832-6.5159,2.681-9.4068l2.1465,4.5793l4.5786,2.1458
				C124.3504,154.9549,120.5876,156.175,117.8352,157.4387z"/>
		</g>
	</g>
</g>
<g>
	<g>
		<line fill="none" stroke="#000000" stroke-miterlimit="10" x1="99.8352" y1="137.4387" x2="127.3875" y2="109.8864"/>
		<g>
			<path d="M131.655,105.6189c-1.263,2.7531-2.4832,6.5159-2.681,9.4068l-2.1465-4.5793l-4.5786-2.1458
				C125.1398,108.1028,128.9026,106.8826,131.655,105.6189z"/>
		</g>
	</g>
</g>
<g>
	<g>
		<line fill="none" stroke="#000000" stroke-miterlimit="10" x1="112.2451" y1="231.5288" x2="151.2451" y2="231.5288"/>
		<g>
			<path d="M157.2451,231.5288c-2.8398,1.0537-6.3633,2.8516-8.5474,4.7559l1.7202-4.7559l-1.7202-4.7549
				C150.8818,228.6782,154.4053,230.4761,157.2451,231.5288z"/>
		</g>
	</g>
</g>
<g>
	<g>
		<line fill="none" stroke="#000000" stroke-miterlimit="10" x1="23.7451" y1="108.0288" x2="23.7451" y2="147.0288"/>
		<g>
			<path d="M23.7451,153.0288c-1.0537-2.8398-2.8516-6.3633-4.7559-8.5474l4.7559,1.7202l4.7549-1.7202
				C26.5957,146.6655,24.7979,150.189,23.7451,153.0288z"/>
		</g>
	</g>
</g>
<text transform="matrix(1 0 0 1 128.7451 226.6195)" font-family="'MyriadPro-Regular'" font-size="12">0</text>
<text transform="matrix(1 0 0 1 120.9376 39.4571)" font-family="'MyriadPro-Regular'" font-size="12">1</text>
<text transform="matrix(1 0 0 1 140.761 150.586)" font-family="'MyriadPro-Regular'" font-size="12">2</text>
<text transform="matrix(1 0 0 1 28.8813 131.5291)" font-family="'Verdana'" font-size="12">2</text>
<text transform="matrix(1 0 0 1 105.8717 116.456)" font-family="'MyriadPro-Regular'" font-size="12">0</text>
<text transform="matrix(1 0 0 1 216.1804 137.4386)" font-family="'MyriadPro-Regular'" font-size="12">1</text>
<text transform="matrix(1 0 0 1 -5.340576e-05 17.0838)" font-family="'Verdana'" font-size="18">3</text>
</svg>
